<svg width="32" height="32" viewBox="0 0 32 32" fill="none" xmlns="http://www.w3.org/2000/svg">
<path fill-rule="evenodd" clip-rule="evenodd" d="M16.0343 2.6665C8.68893 2.6665 2.7356 8.61984 2.7356 15.9652C2.7356 21.8398 6.54493 26.8252 11.8303 28.5852C12.4956 28.7052 12.7356 28.2958 12.7356 27.9438C12.7356 27.6278 12.7249 26.7905 12.7209 25.6825C9.02093 26.4852 8.2396 23.8985 8.2396 23.8985C7.63693 22.3625 6.7636 21.9532 6.7636 21.9532C5.55693 21.1278 6.8556 21.1465 6.8556 21.1465C8.1916 21.2398 8.8916 22.5172 8.8916 22.5172C10.0783 24.5492 12.0063 23.9625 12.7609 23.6225C12.8823 22.7625 13.2289 22.1758 13.6076 21.8438C10.6556 21.5092 7.5516 20.3678 7.5516 15.2705C7.5516 13.8212 8.07026 12.6318 8.91693 11.7038C8.78226 11.3665 8.32226 10.0132 9.04893 8.18384C9.04893 8.18384 10.1649 7.82517 12.7049 9.54517C13.769 9.2505 14.9037 9.1025 16.033 9.09717C17.165 9.1025 18.301 9.2505 19.361 9.54517C21.9023 7.82384 23.017 8.18384 23.017 8.18384C23.7437 10.0132 23.2876 11.3665 23.149 11.7038C24.0023 12.6318 24.5143 13.8198 24.5143 15.2705C24.5143 20.3812 21.4077 21.5038 18.445 21.8332C18.9183 22.2438 19.345 23.0545 19.345 24.2945C19.345 26.0732 19.329 27.5078 19.329 27.9438C19.329 28.2998 19.5663 28.7132 20.245 28.5825C25.5276 26.8198 29.333 21.8385 29.333 15.9652C29.333 8.61984 23.3796 2.6665 16.0343 2.6665Z" fill="white"/>
</svg>
