<svg width="18" height="19" viewBox="0 0 18 19" fill="none" xmlns="http://www.w3.org/2000/svg">
<path opacity="0.5" fill-rule="evenodd" clip-rule="evenodd" d="M8.99988 16.2528C12.7294 16.2528 15.7527 13.2295 15.7527 9.50001C15.7527 5.77053 12.7294 2.74719 8.99988 2.74719C5.27041 2.74719 2.24707 5.77053 2.24707 9.50001C2.24707 13.2295 5.27041 16.2528 8.99988 16.2528Z" stroke="#9146FF" stroke-width="1.25"/>
<path opacity="0.5" d="M12.0013 12.5013C11.914 12.2817 11.7787 12.0846 11.6051 11.9243V11.9243C11.3127 11.6525 10.9284 11.5013 10.5292 11.5011H7.47164C7.07222 11.5014 6.68765 11.6525 6.39494 11.9243V11.9243C6.2218 12.0849 6.08649 12.282 5.99878 12.5013" stroke="#9146FF" stroke-width="1.25"/>
<path opacity="0.5" fill-rule="evenodd" clip-rule="evenodd" d="M8.99997 9.87518C9.93234 9.87518 10.6882 9.11935 10.6882 8.18698C10.6882 7.25461 9.93234 6.49878 8.99997 6.49878C8.0676 6.49878 7.31177 7.25461 7.31177 8.18698C7.31177 9.11935 8.0676 9.87518 8.99997 9.87518Z" stroke="#9146FF" stroke-width="1.25"/>
</svg>
