<svg width="40" height="55" viewBox="0 0 40 55" fill="none" xmlns="http://www.w3.org/2000/svg">
<g clip-path="url(#clip0_1301_83)">
<path d="M32.3092 0H28.9456L26.6645 8.66869e-06L24.0014 0C24.0014 0 20.7334 0 17.2863 0C17.2356 0 17.1849 0 17.1342 0C14.1433 0 11.2538 0.758439 8.66849 2.22475C6.03246 3.74164 3.85268 6.01696 2.38257 8.69676C0.811089 11.5283 0 14.9665 0 18.9104V20.1745C0 24.1184 0.811089 27.5566 2.38257 30.3881C3.85268 33.1184 6.03246 35.3432 8.66849 36.8602C10.8483 38.0737 13.2308 38.7815 15.7148 39.0343C18.1987 39.2872 20.6827 39.0343 23.0653 38.2759C24.3833 37.8208 25.5999 37.1636 26.6645 36.2029C27.4755 35.4951 28.1852 34.6354 28.7936 33.7253L28.895 33.5734H39.9459V0H35.6938H32.3092ZM31.024 19.9722C31.024 23.5622 29.9595 26.3431 27.8811 28.3656C25.7013 30.287 22.9639 31.3489 20.0744 31.3489C17.1849 31.3489 14.3968 30.287 12.2677 28.3656C10.1386 26.3937 9.07403 23.5622 9.07403 19.9722V19.2138C9.07403 15.5733 10.1386 12.7418 12.217 10.7698C14.3461 8.79789 17.1342 7.73608 20.0744 7.83721C23.2174 7.83721 25.8534 8.84846 27.9318 10.7698C30.0102 12.7418 31.0748 15.5733 31.0748 19.2138V19.9722H31.024Z" fill="#9146FF"/>
<path d="M30.872 44.0399C30.872 45.8097 29.9596 46.7704 28.2867 46.7704H6.18457V54.6077H31.7339C34.2179 54.6077 36.2456 53.8492 37.7154 52.3323C39.1856 50.8153 39.9459 48.793 39.9459 46.2141V43.0793H30.872V44.0399Z" fill="#9146FF"/>
</g>
<defs>
<clipPath id="clip0_1301_83">
<rect width="40" height="54.6154" fill="white"/>
</clipPath>
</defs>
</svg>
