<svg width="586" height="574" viewBox="0 0 586 574" fill="none" xmlns="http://www.w3.org/2000/svg">
<g clip-path="url(#clip0_1013_1409)">
<path d="M568.119 222.284C503.125 110.987 326.851 150.627 290.845 96.4867C272.408 68.7653 251.784 36.6333 221.868 19.924C193.349 3.99468 160.283 -1.68933 131.454 0.42134C28.5098 7.95734 -15.1396 100.063 4.64266 201.209C31.0328 336.132 150.637 473.955 292.728 474.92C367.043 475.424 437.992 448.86 493.647 411.305C494.064 411.025 494.479 410.744 494.893 410.461C550.492 372.615 617.739 307.26 568.119 222.284Z" fill="#9146FF"/>
<path d="M294.809 474.927C294.12 474.927 293.417 474.924 292.728 474.92C251.152 474.637 211.5 462.637 175.547 442.421C176.139 441.892 176.709 441.339 177.257 440.764C177.537 440.47 177.527 440.004 177.232 439.724C177.089 439.588 176.907 439.521 176.725 439.521C176.531 439.521 176.337 439.597 176.192 439.749C175.557 440.416 174.889 441.052 174.192 441.655C164.116 435.917 154.345 429.541 144.896 422.591H183.956C183.897 423.257 183.816 423.919 183.713 424.571C183.649 424.972 183.923 425.348 184.324 425.412C184.364 425.419 184.403 425.421 184.44 425.421C184.796 425.421 185.108 425.163 185.165 424.8C185.281 424.072 185.369 423.336 185.432 422.591H230.152C240.212 422.591 248.367 414.437 248.367 404.376V391.919H286.344C285.657 396.051 285.095 399.556 284.691 401.98C282.513 415.055 278.647 426.823 280.617 431.323C282.573 435.809 310.709 457.475 326.889 463.063C334.245 465.611 350.127 466.66 365.257 467.046C342.403 472.12 318.792 474.928 294.809 474.927ZM182.941 429.627C182.644 429.627 182.364 429.809 182.252 430.104C181.575 431.907 180.72 433.623 179.709 435.232C179.493 435.576 179.596 436.029 179.94 436.245C180.063 436.323 180.197 436.359 180.331 436.359C180.576 436.359 180.815 436.237 180.955 436.015C182.017 434.323 182.917 432.519 183.629 430.621C183.772 430.241 183.58 429.817 183.2 429.675C183.115 429.643 183.027 429.627 182.941 429.627ZM454.492 434.495C458.516 430.181 462.26 425.364 465.497 419.997C465.497 419.997 461.733 407.653 455.401 391.919H503.845C520.591 391.917 534.172 378.336 534.172 361.589V183.103C547.269 193.556 558.832 206.381 568.119 222.284C580.293 243.133 585.432 262.803 585.435 281.173C585.441 337.675 536.851 381.901 494.893 410.461C494.479 410.744 494.064 411.025 493.647 411.305C481.303 419.635 468.211 427.421 454.492 434.495ZM416.932 431.848C416.829 431.848 416.784 431.713 416.784 431.468C416.785 429.685 419.163 422.037 419.165 417.303C419.165 415.937 418.969 414.815 418.46 414.144C416.312 411.296 410.592 411.06 408.756 411.06C408.392 411.06 408.18 411.069 408.18 411.069L408.843 406.967C408.895 406.696 410.485 398.539 411.776 391.919H420.713C425.499 400.573 431.772 412.452 433.449 418.115C433.449 418.115 416.991 431.293 416.999 431.808C416.999 431.819 417.005 431.823 417.019 431.823C416.987 431.84 416.957 431.848 416.932 431.848ZM314.092 422.263L309.032 417.807L319.561 391.919H322.929L327.139 410.555C327.139 410.555 325.865 410.46 324.128 410.46C321.324 410.46 317.309 410.707 315.475 411.996C314.039 413.013 313.668 415.445 313.668 417.688C313.668 420.084 314.092 422.263 314.092 422.263ZM51.262 319.009C41.974 303.771 33.7667 287.936 26.7807 271.788C26.8932 271.857 27.026 271.897 27.1683 271.897C27.5745 271.897 27.9036 271.568 27.9036 271.163V265.28C27.9036 264.873 27.5745 264.544 27.1683 264.544C26.762 264.544 26.4328 264.873 26.4328 265.28V270.981C16.6099 248.124 9.2224 224.621 4.64271 201.209C1.54219 185.355 0 169.724 0 154.605C0 73.2667 44.6453 6.77602 131.454 0.421356C135.279 0.141356 139.173 -0.00130022 143.128 -0.00130022C168.972 -0.00130022 197.133 6.10802 221.868 19.924C249.887 35.5747 269.757 64.7547 287.311 91.1667H81.5901C65.5672 91.168 52.4401 103.613 51.3521 119.367C51.2921 120.075 51.262 120.785 51.262 121.509V230.088C49.4292 230.405 47.6531 230.888 45.9505 231.523C45.5697 231.664 45.3765 232.088 45.5183 232.468C45.6287 232.764 45.9088 232.948 46.2073 232.948C46.2927 232.948 46.3792 232.932 46.464 232.901C48.0047 232.328 49.6084 231.883 51.262 231.581V319.009ZM27.7973 252.823C27.4573 252.823 27.1516 253.061 27.0787 253.407C26.6708 255.34 26.4495 257.341 26.4339 259.391C26.4307 259.796 26.7573 260.128 27.1636 260.132C27.1651 260.132 27.1672 260.132 27.1693 260.132C27.5729 260.132 27.9016 259.805 27.9047 259.401C27.9193 257.451 28.1303 255.548 28.5177 253.711C28.6016 253.313 28.3473 252.923 27.95 252.839C27.8989 252.828 27.8479 252.823 27.7973 252.823ZM32.4588 242.111C32.2271 242.111 31.9995 242.219 31.8563 242.423C30.7073 244.06 29.7183 245.817 28.9104 247.672C28.7484 248.045 28.9188 248.479 29.2917 248.64C29.3869 248.681 29.4864 248.701 29.5844 248.701C29.8683 248.701 30.1385 248.536 30.2593 248.259C31.0265 246.496 31.9677 244.825 33.0599 243.268C33.2932 242.936 33.2131 242.477 32.8807 242.244C32.7521 242.153 32.6047 242.111 32.4588 242.111ZM40.938 234.071C40.8052 234.071 40.6703 234.107 40.5495 234.183C38.8396 235.251 37.2448 236.487 35.7891 237.867C35.4943 238.147 35.4817 238.612 35.7615 238.907C35.9057 239.059 36.1005 239.136 36.2953 239.136C36.4765 239.136 36.6588 239.069 36.8011 238.933C38.186 237.621 39.7027 236.445 41.3287 235.429C41.6729 235.215 41.7781 234.761 41.5631 234.416C41.4235 234.193 41.1833 234.071 40.938 234.071Z" fill="#ECD9F1"/>
<path d="M63.6361 229.647H57.7527C57.3465 229.647 57.0173 229.976 57.0173 230.383C57.0173 230.789 57.3465 231.117 57.7527 231.117H63.6361C64.0418 231.117 64.3709 230.789 64.3709 230.383C64.3709 229.976 64.0418 229.647 63.6361 229.647ZM51.7761 230.003C49.761 230.316 47.8121 230.829 45.9506 231.523C45.5698 231.664 45.3766 232.088 45.5183 232.468C45.6599 232.849 46.0834 233.043 46.4641 232.901C48.2334 232.243 50.0861 231.753 52.0017 231.456C52.4031 231.395 52.6782 231.019 52.6157 230.617C52.5531 230.216 52.1777 229.941 51.7761 230.003ZM40.5495 234.183C38.8397 235.251 37.2449 236.487 35.7891 237.867C35.4943 238.147 35.4818 238.612 35.7615 238.907C36.0407 239.201 36.5063 239.213 36.8011 238.933C38.1861 237.621 39.7027 236.445 41.3287 235.429C41.673 235.215 41.7782 234.761 41.5631 234.416C41.3474 234.072 40.8938 233.967 40.5495 234.183ZM31.8563 242.423C30.7074 244.06 29.7183 245.817 28.9105 247.672C28.7485 248.045 28.9189 248.479 29.2918 248.64C29.6641 248.803 30.0974 248.632 30.2594 248.259C31.0266 246.496 31.9678 244.825 33.0599 243.268C33.2933 242.936 33.2131 242.477 32.8807 242.244C32.5479 242.011 32.0897 242.091 31.8563 242.423ZM27.0787 253.407C26.6709 255.34 26.4495 257.341 26.4339 259.391C26.4307 259.796 26.7574 260.128 27.1637 260.132C27.5698 260.135 27.9017 259.808 27.9047 259.401C27.9194 257.451 28.1303 255.548 28.5178 253.711C28.6017 253.313 28.3474 252.923 27.9501 252.839C27.5527 252.756 27.1626 253.009 27.0787 253.407ZM26.4329 265.28V271.163C26.4329 271.568 26.7621 271.897 27.1683 271.897C27.5746 271.897 27.9037 271.568 27.9037 271.163V265.28C27.9037 264.873 27.5746 264.544 27.1683 264.544C26.7621 264.544 26.4329 264.873 26.4329 265.28ZM26.4329 277.045V282.929C26.4329 283.335 26.7621 283.664 27.1683 283.664C27.5746 283.664 27.9037 283.335 27.9037 282.929V277.045C27.9037 276.64 27.5746 276.311 27.1683 276.311C26.7621 276.311 26.4329 276.64 26.4329 277.045ZM26.4329 288.812V294.696C26.4329 295.101 26.7621 295.431 27.1683 295.431C27.5746 295.431 27.9037 295.101 27.9037 294.696V288.812C27.9037 288.405 27.5746 288.077 27.1683 288.077C26.7621 288.077 26.4329 288.405 26.4329 288.812ZM26.4329 300.579V306.461C26.4329 306.868 26.7621 307.197 27.1683 307.197C27.5746 307.197 27.9037 306.868 27.9037 306.461V300.579C27.9037 300.172 27.5746 299.843 27.1683 299.843C26.7621 299.843 26.4329 300.172 26.4329 300.579ZM26.4329 312.345V318.228C26.4329 318.635 26.7621 318.964 27.1683 318.964C27.5746 318.964 27.9037 318.635 27.9037 318.228V312.345C27.9037 311.939 27.5746 311.609 27.1683 311.609C26.7621 311.609 26.4329 311.939 26.4329 312.345ZM26.4329 324.112V329.995C26.4329 330.401 26.7621 330.731 27.1683 330.731C27.5746 330.731 27.9037 330.401 27.9037 329.995V324.112C27.9037 323.705 27.5746 323.376 27.1683 323.376C26.7621 323.376 26.4329 323.705 26.4329 324.112ZM26.4329 335.879V341.761C26.4329 342.168 26.7621 342.496 27.1683 342.496C27.5746 342.496 27.9037 342.168 27.9037 341.761V335.879C27.9037 335.472 27.5746 335.143 27.1683 335.143C26.7621 335.143 26.4329 335.472 26.4329 335.879ZM26.4329 347.644V353.528C26.4329 353.933 26.7621 354.263 27.1683 354.263C27.5746 354.263 27.9037 353.933 27.9037 353.528V347.644C27.9037 347.239 27.5746 346.909 27.1683 346.909C26.7621 346.909 26.4329 347.239 26.4329 347.644ZM26.4329 359.411V365.295C26.4329 365.7 26.7621 366.029 27.1683 366.029C27.5746 366.029 27.9037 365.7 27.9037 365.295V359.411C27.9037 359.005 27.5746 358.676 27.1683 358.676C26.7621 358.676 26.4329 359.005 26.4329 359.411ZM26.4329 371.177V377.06C26.4329 377.467 26.7621 377.796 27.1683 377.796C27.5746 377.796 27.9037 377.467 27.9037 377.06V371.177C27.9037 370.771 27.5746 370.441 27.1683 370.441C26.7621 370.441 26.4329 370.771 26.4329 371.177ZM26.4329 382.944V388.827C26.4329 389.233 26.7621 389.563 27.1683 389.563C27.5746 389.563 27.9037 389.233 27.9037 388.827V382.944C27.9037 382.537 27.5746 382.208 27.1683 382.208C26.7621 382.208 26.4329 382.537 26.4329 382.944ZM26.4329 394.711V400.593C26.4329 401 26.7621 401.329 27.1683 401.329C27.5746 401.329 27.9037 401 27.9037 400.593V394.711C27.9037 394.304 27.5746 393.975 27.1683 393.975C26.7621 393.975 26.4329 394.304 26.4329 394.711ZM26.4329 406.476V412.36C26.4329 412.767 26.7621 413.095 27.1683 413.095C27.5746 413.095 27.9037 412.767 27.9037 412.36V406.476C27.9037 406.071 27.5746 405.741 27.1683 405.741C26.7621 405.741 26.4329 406.071 26.4329 406.476ZM26.4329 418.243V420.081C26.4329 421.483 26.5293 422.861 26.7151 424.213C26.7709 424.615 27.1422 424.896 27.5443 424.841C27.9465 424.785 28.2282 424.415 28.1725 424.012C27.9954 422.727 27.9037 421.415 27.9037 420.081V418.243C27.9037 417.837 27.5746 417.508 27.1683 417.508C26.7621 417.508 26.4329 417.837 26.4329 418.243ZM28.135 430.063C28.8099 431.975 29.6735 433.797 30.7027 435.509C30.9121 435.857 31.3637 435.969 31.7121 435.76C32.0599 435.551 32.1725 435.099 31.9631 434.751C30.9845 433.124 30.1637 431.391 29.5219 429.573C29.387 429.191 28.9667 428.989 28.5839 429.125C28.2011 429.26 28.0001 429.68 28.135 430.063ZM34.3058 440.331C35.6631 441.812 37.1678 443.156 38.7954 444.34C39.1241 444.579 39.5839 444.507 39.823 444.177C40.0621 443.849 39.9891 443.389 39.6605 443.151C38.1121 442.024 36.6813 440.745 35.3902 439.337C35.1157 439.037 34.6506 439.017 34.3511 439.292C34.0522 439.567 34.0318 440.032 34.3058 440.331ZM43.9938 447.375C45.8053 448.2 47.7137 448.851 49.6965 449.304C50.0927 449.395 50.487 449.146 50.5777 448.751C50.6683 448.355 50.4209 447.96 50.0251 447.87C48.1397 447.439 46.3261 446.82 44.6037 446.036C44.2345 445.867 43.7979 446.031 43.6298 446.4C43.4615 446.769 43.6246 447.205 43.9938 447.375ZM55.6689 450.049C55.9151 450.056 56.1626 450.058 56.4105 450.058H61.5698C61.9761 450.058 62.3053 449.729 62.3053 449.323C62.3053 448.917 61.9761 448.588 61.5698 448.588H56.4105C56.1746 448.588 55.9391 448.585 55.7042 448.579C55.2985 448.569 54.9615 448.891 54.9511 449.297C54.9413 449.703 55.2626 450.04 55.6689 450.049ZM67.4531 450.058H73.3361C73.7422 450.058 74.0714 449.729 74.0714 449.323C74.0714 448.917 73.7422 448.588 73.3361 448.588H67.4531C67.047 448.588 66.7173 448.917 66.7173 449.323C66.7173 449.729 67.047 450.058 67.4531 450.058ZM79.2194 450.058H85.1027C85.5089 450.058 85.8381 449.729 85.8381 449.323C85.8381 448.917 85.5089 448.588 85.1027 448.588H79.2194C78.8131 448.588 78.4839 448.917 78.4839 449.323C78.4839 449.729 78.8131 450.058 79.2194 450.058ZM90.9861 450.058H96.8694C97.2751 450.058 97.6042 449.729 97.6042 449.323C97.6042 448.917 97.2751 448.588 96.8694 448.588H90.9861C90.5798 448.588 90.2506 448.917 90.2506 449.323C90.2506 449.729 90.5798 450.058 90.9861 450.058ZM102.752 450.058H108.636C109.042 450.058 109.371 449.729 109.371 449.323C109.371 448.917 109.042 448.588 108.636 448.588H102.752C102.346 448.588 102.017 448.917 102.017 449.323C102.017 449.729 102.346 450.058 102.752 450.058ZM114.519 450.058H120.402C120.808 450.058 121.138 449.729 121.138 449.323C121.138 448.917 120.808 448.588 120.402 448.588H114.519C114.113 448.588 113.783 448.917 113.783 449.323C113.783 449.729 114.113 450.058 114.519 450.058ZM126.286 450.058H132.168C132.575 450.058 132.904 449.729 132.904 449.323C132.904 448.917 132.575 448.588 132.168 448.588H126.286C125.879 448.588 125.55 448.917 125.55 449.323C125.55 449.729 125.879 450.058 126.286 450.058ZM138.052 450.058H143.935C144.341 450.058 144.671 449.729 144.671 449.323C144.671 448.917 144.341 448.588 143.935 448.588H138.052C137.645 448.588 137.316 448.917 137.316 449.323C137.316 449.729 137.645 450.058 138.052 450.058ZM149.819 450.058H155.557H155.705C156.111 450.056 156.439 449.725 156.437 449.32C156.435 448.913 156.104 448.585 155.697 448.588H155.557H149.819C149.412 448.588 149.083 448.917 149.083 449.323C149.083 449.729 149.412 450.058 149.819 450.058ZM161.691 449.431C163.683 449.016 165.604 448.404 167.431 447.615C167.804 447.455 167.975 447.021 167.815 446.648C167.653 446.276 167.22 446.104 166.848 446.265C165.111 447.015 163.285 447.596 161.391 447.991C160.993 448.074 160.737 448.463 160.82 448.86C160.903 449.258 161.292 449.513 161.691 449.431ZM172.689 444.684C174.341 443.532 175.872 442.217 177.257 440.764C177.537 440.47 177.527 440.004 177.232 439.724C176.939 439.444 176.473 439.455 176.192 439.749C174.875 441.132 173.419 442.381 171.848 443.477C171.515 443.711 171.433 444.168 171.665 444.501C171.897 444.835 172.356 444.916 172.689 444.684ZM180.955 436.015C182.017 434.323 182.917 432.519 183.629 430.621C183.772 430.241 183.58 429.817 183.2 429.675C182.82 429.532 182.396 429.724 182.252 430.104C181.575 431.907 180.72 433.623 179.709 435.232C179.493 435.576 179.596 436.029 179.94 436.245C180.284 436.461 180.739 436.359 180.955 436.015ZM185.165 424.8C185.409 423.263 185.535 421.687 185.535 420.081C185.535 419.675 185.205 419.345 184.8 419.345C184.393 419.345 184.064 419.675 184.064 420.081C184.064 421.609 183.944 423.108 183.713 424.571C183.649 424.972 183.923 425.348 184.324 425.412C184.725 425.476 185.103 425.201 185.165 424.8Z" fill="#1D2A30"/>
<path d="M177.405 78.9813V73.0987C177.405 72.6934 177.076 72.364 176.669 72.364C176.264 72.364 175.935 72.6934 175.935 73.0987V78.9813C175.935 79.388 176.264 79.7173 176.669 79.7173C177.076 79.7173 177.405 79.388 177.405 78.9813ZM177.405 67.216V61.332C177.405 60.9267 177.076 60.5974 176.669 60.5974C176.264 60.5974 175.935 60.9267 175.935 61.332V67.216C175.935 67.6213 176.264 67.9507 176.669 67.9507C177.076 67.9507 177.405 67.6213 177.405 67.216ZM177.405 55.4493V49.5654C177.405 49.16 177.076 48.8307 176.669 48.8307C176.264 48.8307 175.935 49.16 175.935 49.5654V55.4493C175.935 55.8547 176.264 56.184 176.669 56.184C177.076 56.184 177.405 55.8547 177.405 55.4493ZM177.748 43.8547C178.129 41.9774 178.816 40.212 179.755 38.6107C179.96 38.26 179.843 37.8094 179.492 37.604C179.141 37.3987 178.691 37.516 178.485 37.8667C177.467 39.604 176.72 41.5227 176.307 43.5627C176.225 43.96 176.483 44.348 176.881 44.4294C177.279 44.5094 177.667 44.252 177.748 43.8547ZM183.348 34.2947C184.761 33.072 186.376 32.076 188.135 31.3627C188.512 31.2107 188.693 30.7814 188.54 30.4054C188.388 30.0294 187.959 29.8467 187.583 30C185.672 30.7734 183.919 31.8547 182.385 33.1813C182.079 33.448 182.044 33.912 182.311 34.22C182.576 34.5267 183.04 34.56 183.348 34.2947ZM193.613 30.14C193.933 30.1227 194.255 30.1133 194.579 30.1133H199.456C199.861 30.1133 200.191 29.784 200.191 29.3787C200.191 28.972 199.861 28.6427 199.456 28.6427H194.579C194.228 28.6427 193.879 28.652 193.532 28.672C193.127 28.6934 192.816 29.0413 192.839 29.4467C192.861 29.852 193.208 30.1627 193.613 30.14ZM205.339 30.1133H211.221C211.628 30.1133 211.957 29.784 211.957 29.3787C211.957 28.972 211.628 28.6427 211.221 28.6427H205.339C204.932 28.6427 204.603 28.972 204.603 29.3787C204.603 29.784 204.932 30.1133 205.339 30.1133ZM217.105 30.1133H222.988C223.395 30.1133 223.724 29.784 223.724 29.3787C223.724 28.972 223.395 28.6427 222.988 28.6427H217.105C216.699 28.6427 216.369 28.972 216.369 29.3787C216.369 29.784 216.699 30.1133 217.105 30.1133ZM228.872 30.1133H234.755C235.161 30.1133 235.491 29.784 235.491 29.3787C235.491 28.972 235.161 28.6427 234.755 28.6427H228.872C228.465 28.6427 228.136 28.972 228.136 29.3787C228.136 29.784 228.465 30.1133 228.872 30.1133ZM240.639 30.1133H246.521C246.928 30.1133 247.257 29.784 247.257 29.3787C247.257 28.972 246.928 28.6427 246.521 28.6427H240.639C240.232 28.6427 239.903 28.972 239.903 29.3787C239.903 29.784 240.232 30.1133 240.639 30.1133ZM252.404 30.1133H258.288C258.693 30.1133 259.023 29.784 259.023 29.3787C259.023 28.972 258.693 28.6427 258.288 28.6427H252.404C251.999 28.6427 251.669 28.972 251.669 29.3787C251.669 29.784 251.999 30.1133 252.404 30.1133ZM264.171 30.1133H270.055C270.46 30.1133 270.789 29.784 270.789 29.3787C270.789 28.972 270.46 28.6427 270.055 28.6427H264.171C263.765 28.6427 263.436 28.972 263.436 29.3787C263.436 29.784 263.765 30.1133 264.171 30.1133ZM275.937 30.1133H281.821C282.227 30.1133 282.556 29.784 282.556 29.3787C282.556 28.972 282.227 28.6427 281.821 28.6427H275.937C275.531 28.6427 275.203 28.972 275.203 29.3787C275.203 29.784 275.531 30.1133 275.937 30.1133ZM287.704 30.1133H293.587C293.993 30.1133 294.323 29.784 294.323 29.3787C294.323 28.972 293.993 28.6427 293.587 28.6427H287.704C287.297 28.6427 286.968 28.972 286.968 29.3787C286.968 29.784 287.297 30.1133 287.704 30.1133ZM299.471 30.1133H305.353C305.76 30.1133 306.089 29.784 306.089 29.3787C306.089 28.972 305.76 28.6427 305.353 28.6427H299.471C299.064 28.6427 298.735 28.972 298.735 29.3787C298.735 29.784 299.064 30.1133 299.471 30.1133ZM311.237 30.1133H317.12C317.527 30.1133 317.856 29.784 317.856 29.3787C317.856 28.972 317.527 28.6427 317.12 28.6427H311.237C310.831 28.6427 310.501 28.972 310.501 29.3787C310.501 29.784 310.831 30.1133 311.237 30.1133ZM323.003 30.1133H323.513C325.281 30.1133 326.985 30.38 328.588 30.8747C328.976 30.9947 329.388 30.7774 329.508 30.3894C329.628 30.0014 329.411 29.5894 329.023 29.4694C327.28 28.932 325.429 28.6427 323.513 28.6427H323.003C322.597 28.6427 322.268 28.972 322.268 29.3787C322.268 29.784 322.597 30.1133 323.003 30.1133ZM333.608 33.3907C335.131 34.4987 336.464 35.852 337.551 37.3907C337.785 37.7214 338.244 37.8014 338.576 37.5667C338.908 37.332 338.987 36.8734 338.752 36.5414C337.572 34.872 336.125 33.404 334.473 32.2014C334.144 31.9627 333.684 32.036 333.445 32.364C333.207 32.692 333.279 33.152 333.608 33.3907ZM339.996 42.444C340.445 43.9787 340.688 45.604 340.688 47.2867C340.688 47.6934 341.017 48.0227 341.423 48.0227C341.829 48.0227 342.159 47.6934 342.159 47.2867C342.159 45.4627 341.896 43.6987 341.407 42.0307C341.292 41.6414 340.884 41.4174 340.495 41.532C340.104 41.6454 339.881 42.0547 339.996 42.444Z" fill="#1D2A30"/>
<path d="M548.079 537.341C548.079 557.049 433.749 573.027 292.717 573.027C151.684 573.027 37.3547 557.049 37.3547 537.341C37.3547 517.633 151.684 501.656 292.717 501.656C433.749 501.656 548.079 517.633 548.079 537.341Z" fill="#9146FF"/>
<path d="M292.717 573.027C151.684 573.027 37.3547 557.049 37.3547 537.341C37.3547 517.633 151.684 501.656 292.717 501.656C433.749 501.656 548.079 517.633 548.079 537.341C548.079 557.049 433.749 573.027 292.717 573.027Z" fill="#CABDE7"/>
<path d="M533.437 121.509V361.589C533.437 377.931 520.184 391.183 503.845 391.183H81.59C65.2488 391.183 51.9968 377.931 51.9968 361.589V121.509C51.9968 120.803 52.027 120.112 52.0859 119.421C53.1447 104.051 65.9551 91.9027 81.59 91.9027H503.845C519.479 91.9027 532.291 104.051 533.348 119.421C533.407 120.112 533.437 120.803 533.437 121.509Z" fill="white"/>
<path d="M533.437 121.509H532.701V361.589C532.701 369.559 529.472 376.768 524.248 381.993C519.024 387.217 511.813 390.447 503.845 390.447H81.5901C73.6202 390.447 66.4104 387.217 61.186 381.993C55.962 376.769 52.7328 369.559 52.7322 361.589V121.509C52.7322 120.824 52.7614 120.153 52.8182 119.483L52.8193 119.472C53.8516 104.485 66.3448 92.636 81.5901 92.6373H503.845C519.089 92.636 531.583 104.485 532.615 119.472L532.616 119.483C532.673 120.153 532.701 120.824 532.701 121.509H533.437H534.172C534.172 120.783 534.141 120.069 534.081 119.359L533.348 119.421L534.083 119.371C532.996 103.615 519.868 91.168 503.845 91.1667H81.5901C65.5656 91.168 52.438 103.615 51.3521 119.371L52.086 119.421L51.3526 119.359C51.2926 120.069 51.262 120.783 51.262 121.509V361.589C51.2625 378.336 64.8426 391.917 81.5901 391.919H503.845C520.591 391.917 534.172 378.336 534.172 361.589V121.509H533.437Z" fill="#1D2A30"/>
<path d="M492.812 380.02H94.1307C78.814 380.02 66.397 367.603 66.397 352.287V130.512H520.545V352.287C520.545 367.603 508.128 380.02 492.812 380.02Z" fill="#1D2A30"/>
<path d="M492.805 379.292H450.043C447.417 373.437 444.521 367.455 441.403 361.711L452.66 353.648L445.085 335.835C447.497 332.879 449.543 329.628 451.16 326.172L470.471 325.113L473.413 307.389L455.469 300.168C455.057 296.388 454.189 292.681 452.896 289.108L465.809 274.724L455.351 260.104L437.54 267.663C434.584 265.295 431.363 263.295 427.921 261.692L426.877 242.365L409.139 239.439L401.873 257.309C398.108 257.751 394.416 258.619 390.856 259.897L387.939 257.287C387.844 253.767 388.983 249.919 388.983 249.919L386.687 247.893C394.66 244.819 401.341 237.349 400.38 228.28C399.984 224.541 397.236 221.853 393.669 220.965C392.827 220.756 391.999 220.665 391.184 220.665C387.445 220.665 383.967 222.593 380.464 223.913C378.743 224.563 377.028 224.821 375.319 224.821C369.305 224.823 363.339 221.623 357.221 220.965C355.977 220.832 354.683 220.751 353.375 220.751C347.612 220.751 341.607 222.312 338.755 227.757C338.755 227.757 326.684 229.175 321.399 239.088C316.111 249.001 326.161 262.725 326.161 262.725C326.161 262.725 326.737 262.028 327.733 261.692L327.493 261.947C327.493 261.947 324.619 264.488 325.76 270.908C325.995 272.223 326.292 273.5 326.635 274.703L318.769 275.071C317.316 272.648 315.576 270.401 313.607 268.399L317.864 254.652L306.26 248.004L296.552 258.597C293.819 257.928 291.015 257.577 288.192 257.532L281.471 244.791L268.572 248.3L269.253 262.689C266.831 264.144 264.585 265.883 262.568 267.848L248.816 263.603L248.367 264.384V245.792H258.984L264.235 222.348C268.765 221.068 273.119 219.244 277.223 216.951L297.505 229.848L313.287 214.068L300.476 193.785C302.755 189.667 304.565 185.313 305.845 180.783L329.319 175.547V153.22L305.845 148.013C304.565 143.483 302.771 139.1 300.476 134.983L302.843 131.255H519.809V352.288C519.809 359.743 516.789 366.489 511.903 371.38C507.013 376.269 500.268 379.292 492.805 379.292ZM288.528 379.292H248.367V312.592L256.911 312.188C258.345 314.619 260.071 316.861 262.055 318.869L257.776 332.545L269.38 339.193L279.039 328.691C281.78 329.379 284.584 329.729 287.417 329.747L294.12 342.496L298.664 341.26C295.052 346.421 291.324 363.871 288.528 379.292ZM72.5006 368.436C70.3798 365.596 68.8052 362.325 67.9312 358.779L72.5006 363.849V368.436ZM67.1396 347.376V326.227L70.3017 327.123C70.8454 329.539 71.5813 331.905 72.5006 334.199V339.875L67.1396 347.376ZM306.896 336.337L306.452 326.696L306.356 324.591C308.805 323.147 311.067 321.412 313.107 319.425L326.848 323.697L332.527 313.771L333.497 312.092L322.851 302.396C323.54 299.655 323.896 296.837 323.927 294.009L336.657 287.316L335.669 283.689C336.117 283.703 336.4 283.704 336.4 283.704C336.4 283.704 339.637 290.721 342.553 295.155L341.143 303.64L344.056 304.816L344.5 304.995C344.545 305.932 344.587 306.899 344.621 307.856C342.416 308.345 340.036 309.467 338.441 311.893C338.42 311.925 338.399 311.956 338.379 311.989C338.375 311.995 338.371 312.001 338.367 312.008C338.335 312.057 338.304 312.107 338.273 312.157C337.169 315.016 336.944 318.703 336.944 321.24C336.944 322.997 337.052 324.204 337.052 324.204C337.052 324.204 336.788 324.307 336.288 324.484C332.652 325.84 316.811 331.799 306.896 336.337ZM407.251 328.656C400.015 328.656 392.885 325.284 388.356 318.951C380.885 308.537 383.296 294.036 393.711 286.579C397.804 283.644 402.528 282.235 407.205 282.235C414.441 282.235 421.568 285.607 426.097 291.931C433.568 302.36 431.157 316.863 420.743 324.32C416.649 327.247 411.927 328.656 407.251 328.656ZM287.804 310.853C280.197 310.853 273.232 305.793 271.144 298.113C268.636 288.897 274.076 279.401 283.273 276.903C284.793 276.489 286.321 276.292 287.824 276.292C295.432 276.292 302.396 281.352 304.484 289.032C306.992 298.248 301.552 307.743 292.355 310.243C290.835 310.656 289.307 310.853 287.804 310.853ZM67.1396 301.909V131.255H192.985L195.255 134.864C192.945 138.968 191.151 143.336 189.9 147.88L166.427 153.103V175.429L189.9 180.665C191.083 184.988 192.749 189.168 194.879 193.103H90.7156C80.6552 193.103 72.5011 201.256 72.5006 211.317V269.651L67.2126 274.408L72.5006 283.753V299.148C72.2433 299.808 72.0006 300.475 71.7725 301.148L67.1396 301.909ZM248.367 295.021V280.833L252.809 284.872C252.121 287.612 251.771 290.416 251.759 293.236L248.367 295.021ZM247.983 193.225C232.053 193.225 219.14 180.312 219.14 164.383C219.14 148.455 232.053 135.541 247.983 135.541C263.911 135.541 276.825 148.455 276.825 164.383C276.825 180.312 263.911 193.225 247.983 193.225Z" fill="#45555C"/>
<path d="M533.348 119.421H52.0854C53.1448 104.051 65.9552 91.9027 81.5901 91.9027H503.845C519.479 91.9027 532.291 104.051 533.348 119.421Z" fill="#9146FF"/>
<path d="M533.348 119.421V118.685H52.0854V119.421L52.8193 119.472C53.8516 104.485 66.3448 92.636 81.5901 92.6374H503.845C519.089 92.636 531.584 104.485 532.615 119.472L533.348 119.421L534.083 119.371C532.996 103.615 519.868 91.168 503.845 91.1667H81.5901C65.5656 91.168 52.438 103.615 51.3521 119.371L51.2979 120.156H534.136L534.083 119.371L533.348 119.421Z" fill="#1D2A30"/>
<path d="M111.225 105.661C111.225 108.556 108.879 110.903 105.984 110.903C103.089 110.903 100.742 108.556 100.742 105.661C100.742 102.767 103.089 100.42 105.984 100.42C108.879 100.42 111.225 102.767 111.225 105.661Z" fill="#1D2A30"/>
<path d="M133.388 105.661C133.388 108.556 131.042 110.903 128.147 110.903C125.252 110.903 122.905 108.556 122.905 105.661C122.905 102.767 125.252 100.42 128.147 100.42C131.042 100.42 133.388 102.767 133.388 105.661Z" fill="#1D2A30"/>
<path d="M155.552 105.661C155.552 108.556 153.205 110.903 150.311 110.903C147.415 110.903 145.068 108.556 145.068 105.661C145.068 102.767 147.415 100.42 150.311 100.42C153.205 100.42 155.552 102.767 155.552 105.661Z" fill="#1D2A30"/>
<path d="M520.545 130.52H519.809V352.288C519.809 359.743 516.789 366.489 511.903 371.38C507.013 376.269 500.268 379.292 492.805 379.292H94.1286C81.0139 379.293 70.089 369.925 67.6546 357.529L67.6119 357.309L67.439 357.136L66.9187 357.656H67.654V357.597V357.525L67.6406 357.455C67.3114 355.781 67.1395 354.049 67.1395 352.288V131.255H520.545V130.52V129.784H65.6687V352.288C65.6687 354.144 65.8494 355.972 66.1972 357.739L66.9187 357.597H66.1838V357.656V357.961L66.413 358.191L66.9332 357.671L66.2119 357.812C68.7791 370.891 80.2978 380.761 94.1286 380.763H492.805C508.537 380.763 521.28 368.005 521.28 352.288V129.784H520.545V130.52Z" fill="#1D2A30"/>
<path d="M506.2 203.429C498.641 203.429 492.521 197.311 492.521 189.751C492.521 182.207 498.641 176.072 506.2 176.072C513.76 176.072 519.88 182.207 519.88 189.751C519.88 197.311 513.76 203.429 506.2 203.429ZM520.115 164.821C518.173 163.733 516.1 162.879 513.952 162.276L511.465 151.143H500.876L498.405 162.276C496.243 162.865 494.169 163.733 492.228 164.821L482.668 158.703L475.181 166.189L481.197 175.749C480.093 177.705 479.24 179.779 478.652 181.927L467.517 184.397V194.988L478.652 197.473C479.24 199.649 480.093 201.739 481.197 203.695L475.079 213.313L482.565 220.8L492.184 214.681C494.125 215.784 496.199 216.637 498.361 217.24L500.833 228.36H511.423L513.907 217.24C516.056 216.637 518.128 215.769 520.069 214.681L520.556 214.989V164.541L520.115 164.821Z" fill="#1D2A30"/>
<path d="M247.983 193.225C232.053 193.225 219.14 180.312 219.14 164.383C219.14 148.455 232.053 135.541 247.983 135.541C263.911 135.541 276.825 148.455 276.825 164.383C276.825 180.312 263.911 193.225 247.983 193.225ZM329.319 175.547V153.22L305.845 148.013C304.565 143.483 302.771 139.1 300.476 134.983L303.315 130.511H192.519L195.255 134.864C192.945 138.968 191.151 143.336 189.9 147.88L166.427 153.103V175.429L189.9 180.665C191.151 185.24 192.945 189.652 195.255 193.785L182.355 214.068L198.152 229.848L218.419 216.951C222.537 219.259 226.905 221.068 231.451 222.348L236.657 245.792H258.984L264.235 222.348C268.765 221.068 273.119 219.244 277.223 216.951L297.505 229.848L313.287 214.068L300.476 193.785C302.755 189.667 304.565 185.313 305.845 180.783L329.319 175.547Z" fill="#1D2A30"/>
<path d="M134.193 301.192C125.722 291.779 111.22 291.013 101.806 299.485C92.3926 307.957 91.6281 322.46 100.1 331.873C108.572 341.285 123.074 342.036 132.487 333.564C141.901 325.093 142.665 310.604 134.193 301.192ZM181.231 328.857L182.171 311.149L163.816 305.972C162.963 302.339 161.697 298.795 160.051 295.44L171.14 279.865L159.256 266.672L142.636 276.071C139.459 274.085 136.076 272.452 132.517 271.232L129.34 252.405L111.631 251.464L106.512 269.879C102.865 270.687 99.3349 271.952 95.9822 273.615L80.4208 262.524L67.2125 274.408L76.626 291.043C74.5958 294.207 72.9781 297.589 71.7724 301.148L66.4036 302.031V326.019L70.3016 327.123C71.1254 330.784 72.3906 334.328 74.0666 337.683L66.4036 348.405L66.9188 357.597V357.656L66.9333 357.671L74.8317 366.436L91.4812 357.039C94.6578 359.083 98.0708 360.729 101.63 361.936L104.66 380.012V380.028L104.807 380.777L122.515 381.719L122.986 380.028V380.012L127.634 363.304C131.311 362.481 134.841 361.231 138.224 359.568L153.755 370.644L166.963 358.773L157.579 342.124C159.58 338.963 161.197 335.58 162.375 332.035L181.231 328.857Z" fill="#1D2A30"/>
<path d="M292.355 310.243C283.139 312.751 273.644 307.311 271.144 298.113C268.636 288.897 274.076 279.401 283.273 276.903C292.489 274.395 301.984 279.835 304.484 289.032C306.992 298.248 301.552 307.743 292.355 310.243ZM322.851 302.396C323.54 299.655 323.896 296.837 323.927 294.009L336.657 287.316L333.139 274.399L318.769 275.071C317.316 272.648 315.576 270.401 313.607 268.399L317.864 254.652L306.26 248.004L296.552 258.597C293.819 257.928 291.015 257.577 288.192 257.532L281.471 244.791L268.572 248.3L269.253 262.689C266.831 264.144 264.585 265.883 262.568 267.848L248.816 263.603L242.16 275.189L252.809 284.872C252.121 287.612 251.771 290.416 251.759 293.236L239.004 299.952L242.521 312.869L256.911 312.188C258.345 314.619 260.071 316.861 262.055 318.869L257.776 332.545L269.38 339.193L279.039 328.691C281.78 329.379 284.584 329.729 287.417 329.747L294.12 342.496L307.017 338.987L306.452 326.696L306.356 324.591C308.805 323.147 311.067 321.412 313.107 319.425L326.848 323.697L332.527 313.771L333.497 312.092L322.851 302.396Z" fill="#1D2A30"/>
<path d="M420.743 324.32C410.316 331.776 395.813 329.379 388.356 318.951C380.885 308.537 383.296 294.036 393.711 286.579C404.137 279.105 418.64 281.519 426.097 291.931C433.568 302.36 431.157 316.863 420.743 324.32ZM470.471 325.113L473.413 307.389L455.469 300.168C455.057 296.388 454.189 292.681 452.896 289.108L465.809 274.724L455.351 260.104L437.54 267.663C434.584 265.295 431.363 263.295 427.921 261.692L426.877 242.365L409.139 239.439L401.873 257.309C398.108 257.751 394.416 258.619 390.856 259.897L376.428 246.984L361.823 257.441L369.399 275.239C367.309 277.856 365.5 280.651 364 283.621C363.793 284.033 363.588 284.445 363.397 284.857L344.085 285.932L341.143 303.64L344.056 304.816L359.087 310.876C359.5 314.627 360.352 318.332 361.661 321.892L348.747 336.32L359.205 350.927L377.016 343.336C379.959 345.733 383.193 347.749 386.621 349.352L387.621 368.591L405.345 371.517L412.595 353.779C416.375 353.368 420.081 352.499 423.641 351.191L438.04 364.119L452.66 353.648L445.085 335.835C447.497 332.879 449.543 329.628 451.16 326.172L470.471 325.113Z" fill="#1D2A30"/>
<path d="M230.152 421.856H90.7157C81.0615 421.856 73.2361 414.031 73.2361 404.376V211.317C73.2361 201.663 81.0615 193.837 90.7157 193.837H230.152C239.805 193.837 247.632 201.663 247.632 211.317V404.376C247.632 414.031 239.805 421.856 230.152 421.856Z" fill="#9146FF"/>
<path d="M230.152 421.856V421.12H90.7156C86.0896 421.12 81.9078 419.248 78.8754 416.216C75.8442 413.184 73.9718 409.003 73.9713 404.376V211.317C73.9718 206.691 75.8442 202.509 78.8754 199.477C81.9078 196.445 86.0896 194.573 90.7156 194.573H230.152C234.779 194.573 238.96 196.445 241.992 199.477C245.024 202.509 246.896 206.691 246.896 211.317V404.376C246.896 409.003 245.024 413.184 241.992 416.216C238.96 419.248 234.779 421.12 230.152 421.12V421.856V422.591C240.212 422.591 248.367 414.437 248.367 404.376V211.317C248.367 201.256 240.212 193.103 230.152 193.103H90.7156C80.6552 193.103 72.501 201.256 72.5005 211.317V404.376C72.501 414.437 80.6552 422.591 90.7156 422.591H230.152V421.856Z" fill="#1D2A30"/>
<path d="M230.152 421.12H90.7157C86.0897 421.12 81.908 419.248 78.8756 416.216C75.8444 413.184 73.972 409.003 73.9714 404.376V211.317C73.972 206.691 75.8444 202.509 78.8756 199.477C81.908 196.445 86.0897 194.573 90.7157 194.573H230.152C234.779 194.573 238.96 196.445 241.992 199.477C245.024 202.509 246.896 206.691 246.896 211.317V404.376C246.896 409.003 245.024 413.184 241.992 416.216C238.96 419.248 234.779 421.12 230.152 421.12Z" fill="#8E58DD"/>
<path d="M230.152 421.856V421.12C234.779 421.12 238.96 419.248 241.992 416.216C245.024 413.184 246.896 409.003 246.896 404.376V211.317C246.896 206.691 245.024 202.509 241.992 199.477C238.96 196.445 234.779 194.573 230.152 194.573H90.7157C86.0897 194.573 81.9079 196.445 78.8755 199.477C75.8443 202.509 73.9719 206.691 73.9714 211.317V404.376C73.9719 409.003 75.8443 413.184 78.8755 416.216C81.9079 419.248 86.0897 421.12 90.7157 421.12H230.152V421.856H90.7157C81.0615 421.856 73.2361 414.031 73.2361 404.376V211.317C73.2361 201.663 81.0615 193.837 90.7157 193.837H230.152C239.805 193.837 247.632 201.663 247.632 211.317V404.376C247.632 414.031 239.805 421.856 230.152 421.856Z" fill="#182124"/>
<path d="M263.867 228.54V421.599C263.867 431.261 256.041 439.085 246.379 439.085H106.946C97.2973 439.085 89.4724 431.261 89.4724 421.599V228.54C89.4724 218.891 97.2973 211.067 106.946 211.067H246.379C256.041 211.067 263.867 218.891 263.867 228.54Z" fill="white"/>
<path d="M263.867 228.54H263.131V421.599C263.131 426.229 261.257 430.412 258.225 433.445C255.193 436.477 251.009 438.349 246.379 438.349H106.946C102.322 438.349 98.1425 436.477 95.1108 433.445C92.0805 430.412 90.2083 426.229 90.2078 421.599V228.54C90.2083 223.916 92.0801 219.736 95.1108 216.704C98.142 213.675 102.322 211.801 106.946 211.801H246.379C251.009 211.801 255.193 213.675 258.227 216.705C261.259 219.736 263.131 223.916 263.131 228.54H263.867H264.601C264.601 218.484 256.448 210.331 246.379 210.331H106.946C96.8906 210.331 88.7373 218.484 88.7368 228.54V421.599C88.7373 431.667 96.8906 439.82 106.946 439.82H246.379C256.448 439.82 264.601 431.667 264.601 421.599V228.54H263.867Z" fill="#1D2A30"/>
<path d="M263.867 228.54V238.879H89.4724V228.54C89.4724 218.891 97.2973 211.067 106.946 211.067H246.379C256.041 211.067 263.867 218.891 263.867 228.54Z" fill="#9146FF"/>
<path d="M263.867 228.54H263.131V238.143H90.2078V228.54C90.2083 223.916 92.0801 219.736 95.1108 216.704C98.142 213.675 102.322 211.801 106.946 211.801H246.379C251.009 211.801 255.193 213.675 258.227 216.705C261.259 219.736 263.131 223.916 263.131 228.54H263.867H264.601C264.601 218.484 256.448 210.331 246.379 210.331H106.946C96.8906 210.331 88.7373 218.484 88.7368 228.54V239.615H264.601V228.54H263.867Z" fill="#1D2A30"/>
<path d="M148.777 258.051H105.873V250.855H148.777V258.051Z" fill="#9146FF"/>
<path d="M148.777 322.569H105.873V315.373H148.777V322.569Z" fill="#9146FF"/>
<path d="M148.777 381.076H105.873V373.879H148.777V381.076Z" fill="#9146FF"/>
<path d="M227.728 273.951H105.873V268.672H227.728V273.951Z" fill="#1D2A30"/>
<path d="M205.756 283.919H105.873V278.775H205.756V283.919Z" fill="#1D2A30"/>
<path d="M218.836 293.849H105.873V288.707H218.836V293.849Z" fill="#1D2A30"/>
<path d="M218.836 303.771H105.873V298.628H218.836V303.771Z" fill="#1D2A30"/>
<path d="M227.728 332.456H105.873V327.179H227.728V332.456Z" fill="#1D2A30"/>
<path d="M205.756 342.425H105.873V337.281H205.756V342.425Z" fill="#1D2A30"/>
<path d="M218.836 352.356H105.873V347.212H218.836V352.356Z" fill="#1D2A30"/>
<path d="M227.728 396.705H105.873V391.427H227.728V396.705Z" fill="#1D2A30"/>
<path d="M205.756 406.672H105.873V401.529H205.756V406.672Z" fill="#1D2A30"/>
<path d="M218.836 416.604H105.873V411.46H218.836V416.604Z" fill="#1D2A30"/>
<path d="M460.403 77.2027V155.229C460.403 166.745 451.079 176.071 439.563 176.071H259.845C248.343 176.071 239.003 166.745 239.003 155.229V77.2027C239.003 65.6867 248.343 56.3453 259.845 56.3453H439.563C451.079 56.3453 460.403 65.6867 460.403 77.2027Z" fill="white"/>
<path d="M460.403 77.2027H459.668V155.229C459.668 160.787 457.42 165.808 453.781 169.448C450.141 173.087 445.12 175.335 439.563 175.335H259.845C254.295 175.335 249.272 173.087 245.631 169.448C241.989 165.808 239.739 160.787 239.739 155.229V77.2027C239.739 71.6454 241.989 66.62 245.631 62.976C249.273 59.3334 254.295 57.0813 259.845 57.0813H439.563C445.12 57.0813 450.141 59.3334 453.781 62.9747C457.42 66.6187 459.668 71.644 459.668 77.2027H460.403H461.139C461.139 65.28 451.485 55.6107 439.563 55.6107H259.845C247.936 55.612 238.268 65.2787 238.268 77.2027V155.229C238.268 167.152 247.936 176.805 259.845 176.805H439.563C451.485 176.805 461.139 167.151 461.139 155.229V77.2027H460.403Z" fill="#1D1B19"/>
<path d="M460.403 77.2027V78.9813H239.003V77.2027C239.003 65.6867 248.343 56.3453 259.845 56.3453H439.563C451.079 56.3453 460.403 65.6867 460.403 77.2027Z" fill="#9146FF"/>
<path d="M460.403 77.2027H459.668V78.2467H239.739V77.2027C239.739 71.6454 241.989 66.62 245.631 62.976C249.273 59.3334 254.295 57.0813 259.845 57.0813H439.563C445.12 57.0813 450.141 59.3334 453.781 62.9747C457.42 66.6187 459.668 71.644 459.668 77.2027H460.403H461.139C461.139 65.28 451.485 55.6107 439.563 55.6107H259.845C247.936 55.612 238.268 65.2787 238.268 77.2027V79.7173H461.139V77.2027H460.403Z" fill="#1D2A30"/>
<path d="M271.529 71.392C270.283 72.6387 268.261 72.6387 267.013 71.392C265.767 70.1454 265.767 68.124 267.013 66.8787C268.261 65.632 270.283 65.632 271.529 66.8787C272.775 68.124 272.775 70.1454 271.529 71.392Z" fill="#1D2A30"/>
<path d="M286.355 71.392C285.109 72.6387 283.088 72.6387 281.841 71.392C280.595 70.1454 280.595 68.124 281.841 66.8787C283.088 65.632 285.109 65.632 286.355 66.8787C287.601 68.124 287.601 70.1454 286.355 71.392Z" fill="#1D2A30"/>
<path d="M301.181 71.392C299.936 72.6387 297.913 72.6387 296.668 71.392C295.421 70.1454 295.421 68.124 296.668 66.8787C297.913 65.632 299.936 65.632 301.181 66.8787C302.429 68.124 302.429 70.1454 301.181 71.392Z" fill="#1D2A30"/>
<path d="M313.725 155.152H307.843C307.436 155.152 307.107 155.481 307.107 155.888C307.107 156.293 307.436 156.623 307.843 156.623H313.725C314.132 156.623 314.461 156.293 314.461 155.888C314.461 155.481 314.132 155.152 313.725 155.152ZM301.959 155.152H296.076C295.669 155.152 295.34 155.481 295.34 155.888C295.34 156.293 295.669 156.623 296.076 156.623H301.959C302.365 156.623 302.695 156.293 302.695 155.888C302.695 155.481 302.365 155.152 301.959 155.152ZM290.192 155.152H284.309C283.903 155.152 283.573 155.481 283.573 155.888C283.573 156.293 283.903 156.623 284.309 156.623H290.192C290.599 156.623 290.928 156.293 290.928 155.888C290.928 155.481 290.599 155.152 290.192 155.152ZM278.427 155.152H272.543C272.136 155.152 271.808 155.481 271.808 155.888C271.808 156.293 272.136 156.623 272.543 156.623H278.427C278.832 156.623 279.161 156.293 279.161 155.888C279.161 155.481 278.832 155.152 278.427 155.152ZM266.66 155.152H260.776C260.371 155.152 260.041 155.481 260.041 155.888C260.041 156.293 260.371 156.623 260.776 156.623H266.66C267.065 156.623 267.395 156.293 267.395 155.888C267.395 155.481 267.065 155.152 266.66 155.152ZM254.893 155.152H253.856V151.777C253.856 151.371 253.527 151.041 253.121 151.041C252.715 151.041 252.385 151.371 252.385 151.777V155.888C252.385 156.081 252.464 156.271 252.601 156.408C252.737 156.545 252.927 156.623 253.121 156.623H254.893C255.299 156.623 255.628 156.293 255.628 155.888C255.628 155.481 255.299 155.152 254.893 155.152ZM253.856 145.893V140.011C253.856 139.604 253.527 139.275 253.121 139.275C252.715 139.275 252.385 139.604 252.385 140.011V145.893C252.385 146.3 252.715 146.629 253.121 146.629C253.527 146.629 253.856 146.3 253.856 145.893ZM253.856 134.127V128.244C253.856 127.837 253.527 127.508 253.121 127.508C252.715 127.508 252.385 127.837 252.385 128.244V134.127C252.385 134.533 252.715 134.863 253.121 134.863C253.527 134.863 253.856 134.533 253.856 134.127ZM253.856 122.36V116.477C253.856 116.072 253.527 115.741 253.121 115.741C252.715 115.741 252.385 116.072 252.385 116.477V122.36C252.385 122.767 252.715 123.096 253.121 123.096C253.527 123.096 253.856 122.767 253.856 122.36ZM253.856 110.595V104.711C253.856 104.305 253.527 103.976 253.121 103.976C252.715 103.976 252.385 104.305 252.385 104.711V110.595C252.385 111 252.715 111.329 253.121 111.329C253.527 111.329 253.856 111 253.856 110.595ZM253.856 98.828V93.3307H253.121V94.0654H253.507C253.913 94.0654 254.243 93.736 254.243 93.3307C254.243 92.924 253.913 92.5947 253.507 92.5947H253.121C252.927 92.5947 252.737 92.6733 252.601 92.8107C252.464 92.948 252.385 93.136 252.385 93.3307V98.828C252.385 99.2334 252.715 99.5627 253.121 99.5627C253.527 99.5627 253.856 99.2334 253.856 98.828ZM259.389 94.0654H265.273C265.679 94.0654 266.008 93.736 266.008 93.3307C266.008 92.924 265.679 92.5947 265.273 92.5947H259.389C258.984 92.5947 258.655 92.924 258.655 93.3307C258.655 93.736 258.984 94.0654 259.389 94.0654ZM271.156 94.0654H277.04C277.445 94.0654 277.775 93.736 277.775 93.3307C277.775 92.924 277.445 92.5947 277.04 92.5947H271.156C270.751 92.5947 270.421 92.924 270.421 93.3307C270.421 93.736 270.751 94.0654 271.156 94.0654ZM282.923 94.0654H288.807C289.212 94.0654 289.541 93.736 289.541 93.3307C289.541 92.924 289.212 92.5947 288.807 92.5947H282.923C282.516 92.5947 282.188 92.924 282.188 93.3307C282.188 93.736 282.516 94.0654 282.923 94.0654ZM294.689 94.0654H300.572C300.979 94.0654 301.308 93.736 301.308 93.3307C301.308 92.924 300.979 92.5947 300.572 92.5947H294.689C294.283 92.5947 293.953 92.924 293.953 93.3307C293.953 93.736 294.283 94.0654 294.689 94.0654ZM306.456 94.0654H312.339C312.745 94.0654 313.075 93.736 313.075 93.3307C313.075 92.924 312.745 92.5947 312.339 92.5947H306.456C306.049 92.5947 305.72 92.924 305.72 93.3307C305.72 93.736 306.049 94.0654 306.456 94.0654ZM318.223 94.0654H324.105C324.512 94.0654 324.841 93.736 324.841 93.3307C324.841 92.924 324.512 92.5947 324.105 92.5947H318.223C317.816 92.5947 317.487 92.924 317.487 93.3307C317.487 93.736 317.816 94.0654 318.223 94.0654ZM324.756 97.8267V103.711C324.756 104.117 325.085 104.445 325.492 104.445C325.899 104.445 326.227 104.117 326.227 103.711V97.8267C326.227 97.4214 325.899 97.092 325.492 97.092C325.085 97.092 324.756 97.4214 324.756 97.8267ZM324.756 109.593V115.476C324.756 115.883 325.085 116.212 325.492 116.212C325.899 116.212 326.227 115.883 326.227 115.476V109.593C326.227 109.188 325.899 108.859 325.492 108.859C325.085 108.859 324.756 109.188 324.756 109.593ZM324.756 121.36V127.243C324.756 127.649 325.085 127.979 325.492 127.979C325.899 127.979 326.227 127.649 326.227 127.243V121.36C326.227 120.953 325.899 120.624 325.492 120.624C325.085 120.624 324.756 120.953 324.756 121.36ZM324.756 133.127V139.009C324.756 139.416 325.085 139.745 325.492 139.745C325.899 139.745 326.227 139.416 326.227 139.009V133.127C326.227 132.72 325.899 132.391 325.492 132.391C325.085 132.391 324.756 132.72 324.756 133.127ZM324.756 144.893V150.776C324.756 151.183 325.085 151.512 325.492 151.512C325.899 151.512 326.227 151.183 326.227 150.776V144.893C326.227 144.487 325.899 144.157 325.492 144.157C325.085 144.157 324.756 144.487 324.756 144.893ZM325.492 155.152H319.608C319.203 155.152 318.873 155.481 318.873 155.888C318.873 156.293 319.203 156.623 319.608 156.623H325.492C325.899 156.623 326.227 156.293 326.227 155.888C326.227 155.481 325.899 155.152 325.492 155.152Z" fill="#1D2A30"/>
<path d="M419.948 97.724H336.657V93.3307H419.948V97.724Z" fill="#1D2A30"/>
<path d="M400.547 106.835H336.657V102.441H400.547V106.835Z" fill="#1D2A30"/>
<path d="M431.795 115.945H336.657V111.5H431.795V115.945Z" fill="#1D2A30"/>
<path d="M417.669 124.796H336.657V120.351H417.669V124.796Z" fill="#1D2A30"/>
<path d="M355.201 530.765C355.201 530.765 316.533 541.855 311.136 543.767C306.224 545.501 292.913 550.164 282.927 548.723C281.94 548.576 280.985 548.37 280.072 548.104C269.953 545.091 265.408 542.28 264.085 535.912C262.747 529.529 267.792 524.867 272.645 521.865C277.499 518.865 303.827 515.732 303.827 515.732L310.18 517.6H310.195L355.201 530.765Z" fill="#9146FF"/>
<path d="M282.927 548.723C281.94 548.576 280.985 548.37 280.072 548.104C269.953 545.091 265.408 542.28 264.085 535.912C262.747 529.529 267.792 524.867 272.645 521.865C277.499 518.865 303.827 515.732 303.827 515.732L310.18 517.6C304.429 520.248 282.985 521.719 278.308 524.411C273.631 527.101 271.365 532.176 274.131 539.031C275.601 542.677 279.543 546.208 282.927 548.723Z" fill="white"/>
<path d="M349.199 531.628C349.196 531.629 341.931 533.512 333.223 535.997C324.509 538.485 314.371 541.568 308.545 544.003C303.079 546.292 295.107 547.979 287.525 547.976C283.493 547.977 279.569 547.5 276.192 546.411C272.813 545.321 269.995 543.628 268.096 541.216C265.745 538.229 264.817 535.445 264.816 532.976C264.817 530.235 265.961 527.829 267.771 525.92C269.579 524.013 272.052 522.632 274.615 522.012C281.155 520.423 293.391 518.049 302.135 518.052C303.783 518.052 305.304 518.136 306.631 518.321C307.032 518.377 307.404 518.096 307.46 517.695C307.516 517.292 307.235 516.92 306.833 516.864C305.416 516.667 303.832 516.581 302.135 516.581C293.147 516.585 280.893 518.977 274.268 520.582C271.435 521.27 268.729 522.776 266.704 524.907C264.681 527.033 263.344 529.813 263.345 532.976C263.344 535.824 264.431 538.943 266.941 542.127C269.076 544.835 272.171 546.66 275.741 547.811C279.315 548.963 283.377 549.446 287.525 549.446C295.325 549.444 303.421 547.736 309.113 545.36C314.803 542.979 324.94 539.891 333.627 537.412C337.971 536.172 341.957 535.081 344.857 534.301C347.757 533.521 349.564 533.053 349.568 533.052C349.961 532.951 350.197 532.549 350.096 532.156C349.993 531.763 349.592 531.527 349.2 531.628" fill="#1D2A30"/>
<path d="M283.863 547.549L283.753 547.488C283.191 547.165 280.552 545.58 278.089 543.091C275.617 540.596 273.369 537.232 273.377 533.376C273.377 532.005 273.653 530.56 274.315 529.029C275.112 527.179 276.833 525.824 279.256 524.78C282.879 523.216 287.955 522.439 293.04 521.65C298.131 520.851 303.231 520.041 307.044 518.258C307.412 518.085 307.569 517.648 307.397 517.28C307.224 516.913 306.787 516.755 306.419 516.927C301.737 519.137 294.391 519.852 287.755 521.016C284.433 521.604 281.28 522.309 278.675 523.429C276.079 524.545 273.977 526.107 272.964 528.445C272.228 530.15 271.905 531.805 271.905 533.376C271.905 535.744 272.633 537.904 273.699 539.791C276.909 545.441 283.107 548.801 283.155 548.839C283.512 549.035 283.959 548.904 284.153 548.548C284.349 548.192 284.219 547.745 283.863 547.549Z" fill="#1D2A30"/>
<path d="M472.968 550.517C472.572 554.474 471.175 558.268 467.175 560.621C464.512 562.196 460.717 563.136 455.291 563.077C441.729 562.901 416.24 553.209 416.24 553.209L392.369 540.016L404.783 520.365L408.18 514.983L416.96 516.953C416.96 516.953 424.227 521.072 431.536 524.351C438.847 527.632 456.584 528.321 462.836 533.381C469.085 538.428 473.645 543.928 472.968 550.517Z" fill="#9146FF"/>
<path d="M472.968 550.517C472.572 554.474 471.175 558.268 467.175 560.621C467.924 557.546 468.541 553.297 466.497 548.708C463.849 542.721 455.157 537.441 443.744 536.558C432.345 535.676 423.593 530.337 419.019 527.955C415.447 526.101 407.915 522.056 404.783 520.365L408.18 514.983L416.96 516.953C416.96 516.953 424.227 521.072 431.536 524.351C438.847 527.632 456.584 528.321 462.836 533.381C469.085 538.428 473.645 543.928 472.968 550.517Z" fill="white"/>
<path d="M397.293 544.352C414.364 554.132 433.884 561.175 453.443 563.529C454.752 563.688 456.135 563.807 457.519 563.807C459.153 563.807 460.793 563.641 462.319 563.163C463.844 562.686 465.26 561.882 466.383 560.621C467.947 558.863 468.615 556.525 468.615 554.248C468.615 553.913 468.6 553.58 468.572 553.249C468.292 549.993 466.785 547.099 464.643 544.724C462.497 542.348 459.715 540.474 456.8 539.22C451.004 536.736 444.716 536.16 438.777 534.824C432.865 533.499 427.124 531.399 421.751 528.596C417.479 526.374 413.252 523.587 408.312 522.535C407.221 522.304 406.088 522.185 404.951 522.185C402.919 522.185 400.876 522.564 399.056 523.382C397.239 524.201 395.64 525.47 394.561 527.236C394.349 527.582 394.459 528.036 394.805 528.248C395.151 528.46 395.604 528.351 395.816 528.004C396.721 526.525 398.063 525.445 399.66 524.724C401.256 524.004 403.103 523.655 404.951 523.656C405.984 523.656 407.019 523.764 408.008 523.974C412.588 524.937 416.715 527.62 421.071 529.9C426.557 532.762 432.419 534.905 438.456 536.26C444.52 537.613 450.713 538.2 456.22 540.572C458.957 541.746 461.575 543.517 463.551 545.709C465.528 547.904 466.86 550.503 467.107 553.375C467.132 553.664 467.144 553.956 467.144 554.248C467.145 556.244 466.549 558.228 465.285 559.643C464.364 560.675 463.208 561.341 461.879 561.76C460.551 562.177 459.053 562.336 457.519 562.336C456.219 562.336 454.892 562.224 453.619 562.069C434.291 559.744 414.94 552.768 398.024 543.076C397.672 542.874 397.223 542.996 397.02 543.348C396.819 543.701 396.94 544.151 397.293 544.352Z" fill="#1D2A30"/>
<path d="M464.577 562.451C469.141 560.104 472.916 555.807 473.701 550.625C473.8 549.964 473.848 549.303 473.848 548.644C473.837 543.211 470.64 538.084 466.361 534.797C461.575 531.132 455.672 529.45 449.919 528.251C444.165 527.057 438.36 526.258 433.029 524.172C429.521 522.804 425.98 520.835 422.372 519.189C418.765 517.548 415.077 516.219 411.245 516.216C409.936 516.216 408.612 516.374 407.28 516.727C406.887 516.831 406.653 517.233 406.757 517.627C406.861 518.019 407.264 518.253 407.657 518.148C408.86 517.829 410.053 517.688 411.245 517.687C414.727 517.684 418.227 518.915 421.763 520.528C425.299 522.137 428.859 524.121 432.493 525.543C438.045 527.708 443.935 528.507 449.62 529.691C455.304 530.869 460.983 532.523 465.467 535.964C469.455 539.016 472.387 543.811 472.377 548.644C472.377 549.231 472.335 549.82 472.247 550.407C471.568 554.993 468.129 558.977 463.907 561.141C463.545 561.327 463.403 561.77 463.588 562.132C463.773 562.493 464.216 562.636 464.577 562.451Z" fill="#1D2A30"/>
<path d="M417.019 431.823C415.621 432.543 421.035 417.541 418.46 414.144C415.887 410.731 408.18 411.069 408.18 411.069L408.843 406.967C408.931 406.509 413.416 383.507 413.416 383.507L414.931 381.699C414.931 381.699 430.639 408.628 433.449 418.115C433.449 418.115 416.328 431.823 417.019 431.823ZM315.475 411.996C312.504 414.099 314.092 422.263 314.092 422.263L309.032 417.807L321.727 386.596L327.139 410.555C327.139 410.555 318.447 409.908 315.475 411.996ZM424.595 337.161L384.205 321.792L383.705 321.6C383.705 321.6 383.852 320.527 383.971 318.968C384.221 315.747 384.352 310.496 382.839 308.716C380.588 306.084 374.204 308.289 367.983 305.436C361.761 302.583 350.244 307.687 350.244 307.687C350.244 307.687 341.935 306.156 338.273 312.157C336.405 316.996 337.052 324.204 337.052 324.204C337.052 324.204 336.788 324.307 336.288 324.484C331.477 326.277 305.296 336.132 299.752 340.089C293.633 344.428 286.868 388.92 284.691 401.98C282.513 415.055 278.647 426.823 280.617 431.323C282.573 435.809 310.709 457.475 326.889 463.063C343.068 468.667 400.472 467.02 400.472 467.02C400.472 467.02 401.413 466.768 403.076 466.24C412.784 463.121 447.231 450.281 465.497 419.997C465.497 419.997 447.803 361.96 424.595 337.161Z" fill="#9146FF"/>
<path d="M348.337 239.816L327.493 261.947C327.493 261.947 324.619 264.488 325.76 270.908C326.903 277.328 329.564 282.844 331.572 283.271C333.583 283.7 336.4 283.704 336.4 283.704C336.4 283.704 340.867 293.384 344.031 297.189C344.031 297.189 345.133 312.131 344.545 316.279C344.545 316.279 352.035 322.821 359.088 323.653C366.143 324.485 377.041 313.676 377.041 313.676L379.743 300.445C379.743 300.445 386.137 290.739 386.573 288.155C387.011 285.571 389.933 286.233 391.369 284.959C392.805 283.685 396.131 277.983 396.68 272.596C397.229 267.209 397.268 261.021 391.011 262.839C385.588 261.381 388.983 249.919 388.983 249.919L379.455 241.512L348.337 239.816Z" fill="white"/>
<path d="M383.961 319.096C383.964 319.055 383.968 319.011 383.971 318.968C384.221 315.747 384.352 310.496 382.839 308.716C384.377 310.517 384.216 315.885 383.961 319.096Z" fill="#938E9B"/>
<path d="M364.703 343.044L360.173 329.116L357.687 343.044C352.685 340.868 337.435 327.645 337.435 327.645C337.435 327.645 336.919 326.411 336.288 324.484C336.788 324.307 337.052 324.204 337.052 324.204C337.052 324.204 336.944 322.997 336.944 321.24C336.944 318.703 337.169 315.016 338.273 312.157C338.304 312.107 338.335 312.057 338.367 312.008C338.371 312.001 338.375 311.995 338.379 311.989C338.399 311.956 338.42 311.925 338.441 311.893C340.036 309.468 342.416 308.345 344.621 307.856C344.747 311.291 344.779 314.633 344.545 316.279C344.545 316.279 352.035 322.821 359.088 323.653C359.349 323.684 359.616 323.699 359.888 323.699C366.936 323.699 377.041 313.676 377.041 313.676L378.356 307.241C380.337 307.377 381.927 307.651 382.839 308.716C384.352 310.496 384.221 315.747 383.971 318.968L383.132 324.204L379.665 328.917C374.037 335.351 364.703 343.044 364.703 343.044Z" fill="#CABDE7"/>
<path d="M359.888 323.699C359.616 323.699 359.349 323.684 359.088 323.653C352.035 322.821 344.545 316.279 344.545 316.279C344.779 314.633 344.747 311.291 344.621 307.856C345.816 307.591 346.96 307.512 347.901 307.512C349.297 307.512 350.244 307.687 350.244 307.687C350.244 307.687 357.279 304.569 363.321 304.569C365.011 304.569 366.624 304.813 367.983 305.436C371.684 307.133 375.444 307.04 378.356 307.241L377.041 313.676C377.041 313.676 366.936 323.699 359.888 323.699Z" fill="white"/>
<path d="M403.076 466.24L393.869 456.679L396.913 420.527L404.359 356.864C405.141 350.176 401.732 343.713 395.796 340.537C387.26 335.967 377.161 332.321 377.161 332.321L379.665 328.917C381.168 327.199 382.407 325.571 383.132 324.204C383.529 323.453 383.883 322.645 384.205 321.792L424.595 337.161C447.803 361.96 465.497 419.997 465.497 419.997C447.231 450.281 412.784 463.121 403.076 466.24ZM416.784 431.468C416.784 431.713 416.829 431.848 416.932 431.848C416.957 431.848 416.987 431.84 417.019 431.823C417.005 431.823 416.999 431.819 416.999 431.808C416.991 431.293 433.449 418.115 433.449 418.115C430.639 408.628 414.931 381.699 414.931 381.699L413.416 383.507C413.416 383.507 412.823 386.551 412.063 390.447C411.969 390.925 411.873 391.419 411.776 391.919C410.485 398.539 408.895 406.696 408.843 406.967L408.18 411.069C408.18 411.069 408.392 411.06 408.756 411.06C410.592 411.06 416.312 411.296 418.46 414.144C418.969 414.815 419.165 415.937 419.165 417.303C419.163 422.037 416.785 429.685 416.784 431.468Z" fill="#8E58DD"/>
<path d="M383.705 321.6C383.707 321.589 383.844 320.571 383.961 319.096C383.845 320.577 383.707 321.591 383.705 321.6Z" fill="#8E58DD"/>
<path d="M379.665 328.917L383.132 324.204C382.407 325.571 381.168 327.199 379.665 328.917Z" fill="#AA91C9"/>
<path d="M383.132 324.204L383.971 318.968C383.968 319.011 383.964 319.055 383.961 319.096C383.844 320.571 383.707 321.589 383.705 321.6L384.205 321.792C383.883 322.645 383.529 323.453 383.132 324.204Z" fill="#AA91C9"/>
<path d="M319.476 440.575C319.476 440.575 301.355 426.116 293.884 426.116C286.427 426.116 287.751 423.719 293.884 414.144C300.016 404.553 306.641 372.287 306.641 372.287L304.612 345.277C310.367 352.337 318.087 375.467 321.647 386.792L320.16 390.447L319.561 391.919L309.032 417.807L314.092 422.263C314.092 422.263 313.668 420.084 313.668 417.688C313.668 415.445 314.039 413.013 315.475 411.996C317.309 410.707 321.324 410.46 324.128 410.46C325.865 410.46 327.139 410.555 327.139 410.555L322.095 388.228C323.04 391.268 323.593 393.155 323.593 393.155L329.875 414.144L318.077 428.513L319.476 440.575Z" fill="#8E58DD"/>
<path d="M322.095 388.228C321.953 387.773 321.804 387.296 321.647 386.792L321.727 386.596L322.095 388.228Z" fill="#CECDCC"/>
<path d="M343.3 297.264C343.3 297.265 343.331 297.572 343.379 298.116C343.523 299.747 343.811 303.477 343.811 307.104C343.812 309.517 343.679 311.896 343.313 313.515C343.224 313.912 343.473 314.305 343.871 314.393C344.267 314.483 344.66 314.233 344.748 313.837C345.156 312.009 345.28 309.575 345.281 307.104C345.281 302.169 344.764 297.128 344.763 297.115C344.721 296.711 344.36 296.416 343.956 296.457C343.552 296.499 343.257 296.86 343.3 297.264Z" fill="#1D2A30"/>
<path d="M378.931 312.152L378.929 312.028C378.928 311.191 378.988 306.235 380.168 301.527C380.267 301.132 380.027 300.733 379.632 300.635C379.239 300.536 378.839 300.776 378.741 301.169C377.511 306.093 377.46 311.125 377.459 312.028L377.46 312.169C377.464 312.576 377.797 312.901 378.204 312.896C378.611 312.891 378.935 312.557 378.931 312.152Z" fill="#1D2A30"/>
<path d="M380.651 248.712L380.719 248.797C381.061 249.239 382.651 251.336 384.141 254.044C385.637 256.747 387.009 260.076 387 262.86C387 263.012 386.996 263.163 386.988 263.312C386.687 268.913 386.251 275.452 386.251 282.02C386.251 283.06 386.261 284.101 386.285 285.14L386.287 285.284C386.293 286.995 385.576 289.327 384.363 291.821C382.547 295.568 379.644 299.701 376.633 302.995C375.129 304.641 373.597 306.079 372.173 307.156C370.753 308.235 369.431 308.941 368.427 309.16C365.887 309.725 363.513 310.109 361.359 310.108C358.197 310.1 355.555 309.315 353.305 307.076C349.333 303.107 345.303 297.508 340.035 290.307C338.349 288.012 337.316 284.649 336.739 281.224C336.156 277.797 336.013 274.313 336.015 271.755C336.015 270.561 336.045 269.568 336.076 268.876C336.107 268.183 336.137 267.8 336.136 267.799C336.168 267.393 335.865 267.04 335.46 267.008C335.056 266.976 334.701 267.279 334.671 267.684C334.669 267.699 334.544 269.316 334.544 271.755C334.544 274.368 334.687 277.923 335.288 281.469C335.895 285.017 336.943 288.563 338.848 291.176C344.113 298.371 348.16 304.008 352.265 308.116C354.813 310.675 357.96 311.588 361.359 311.58C363.687 311.579 366.155 311.171 368.745 310.596C370.54 310.187 372.521 308.884 374.599 307.069C377.703 304.343 380.959 300.423 383.467 296.435C384.719 294.44 385.784 292.429 386.541 290.533C387.297 288.636 387.755 286.857 387.757 285.284L387.756 285.105C387.732 284.08 387.721 283.051 387.721 282.02C387.721 275.516 388.153 269.007 388.456 263.392C388.467 263.215 388.471 263.039 388.471 262.86C388.46 259.401 386.771 255.685 385.12 252.781C383.463 249.883 381.816 247.815 381.801 247.796C381.548 247.477 381.085 247.425 380.768 247.679C380.451 247.931 380.397 248.393 380.651 248.712Z" fill="#1D2A30"/>
<path d="M364.021 273.633C363.651 275.724 363.464 277.848 363.464 279.971C363.464 280.293 363.468 280.616 363.477 280.937C363.539 282.989 363.812 285.355 365.444 287.039C365.879 287.479 366.344 287.827 366.68 288.163C367.023 288.504 367.201 288.785 367.24 289.081L367.248 289.203C367.248 289.437 367.155 289.699 366.957 289.971C366.763 290.239 366.472 290.499 366.165 290.695H366.164C365.464 291.156 364.485 291.479 363.611 292.225C363.304 292.492 363.272 292.957 363.539 293.263C363.805 293.569 364.269 293.601 364.576 293.335C365.147 292.824 366.043 292.507 366.957 291.933C367.396 291.652 367.816 291.288 368.147 290.836C368.473 290.387 368.717 289.831 368.719 289.203L368.697 288.885C368.591 288.111 368.148 287.548 367.716 287.12C367.277 286.687 366.816 286.34 366.493 286.009C365.315 284.828 364.992 282.857 364.947 280.899C364.939 280.589 364.935 280.28 364.935 279.971C364.935 277.933 365.113 275.896 365.469 273.891C365.541 273.491 365.275 273.109 364.875 273.039C364.475 272.967 364.093 273.233 364.021 273.633Z" fill="#1D2A30"/>
<path d="M353.145 293.728C353.159 293.803 353.38 295.193 354.535 296.74C355.683 298.288 357.799 299.959 361.395 300.512C361.796 300.575 362.172 300.3 362.235 299.899C362.297 299.497 362.023 299.121 361.621 299.059C358.373 298.545 356.671 297.129 355.712 295.86C355.236 295.223 354.955 294.616 354.793 294.176C354.713 293.956 354.663 293.779 354.633 293.66L354.604 293.529L354.599 293.503C354.536 293.101 354.16 292.825 353.759 292.888C353.357 292.951 353.083 293.327 353.145 293.728Z" fill="#1D2A30"/>
<path d="M354.584 277.653C354.584 279.128 353.947 280.323 353.16 280.323C352.373 280.323 351.736 279.128 351.736 277.653C351.736 276.179 352.373 274.983 353.16 274.983C353.947 274.983 354.584 276.179 354.584 277.653Z" fill="#1D2A30"/>
<path d="M374.997 278.295C374.997 279.769 374.359 280.965 373.572 280.965C372.787 280.965 372.148 279.769 372.148 278.295C372.148 276.82 372.787 275.625 373.572 275.625C374.359 275.625 374.997 276.82 374.997 278.295Z" fill="#1D2A30"/>
<path d="M371.919 272.869L371.664 272.615L371.916 272.872L371.919 272.869L371.664 272.615L371.916 272.872C371.941 272.847 372.576 272.235 373.537 271.66C374.501 271.079 375.773 270.56 377.057 270.565C377.803 270.568 378.56 270.723 379.372 271.151C380.183 271.581 381.059 272.299 381.96 273.485C382.451 274.132 383.373 274.259 384.02 273.768C384.667 273.277 384.793 272.355 384.303 271.707C383.193 270.243 381.993 269.209 380.749 268.552C379.508 267.892 378.235 267.621 377.057 267.624C374.939 267.631 373.163 268.443 371.908 269.208C370.651 269.981 369.895 270.736 369.839 270.789C369.264 271.364 369.264 272.296 369.839 272.869C370.413 273.444 371.344 273.444 371.919 272.869Z" fill="#1D2A30"/>
<path d="M357.936 270.979C357.865 270.901 357.301 270.279 356.26 269.649C355.224 269.021 353.685 268.388 351.752 268.388C349.82 268.384 347.549 269.036 345.137 270.759C344.475 271.229 344.32 272.148 344.791 272.809C345.261 273.472 346.18 273.627 346.841 273.156C348.855 271.731 350.469 271.333 351.752 271.329C353.033 271.329 354.039 271.745 354.741 272.168C355.089 272.377 355.357 272.588 355.529 272.739L355.712 272.908L355.747 272.943L355.748 272.945L356.392 272.356L355.74 272.936L355.748 272.945L356.392 272.356L355.74 272.936C356.281 273.543 357.211 273.596 357.817 273.055C358.424 272.515 358.476 271.585 357.936 270.979Z" fill="#1D2A30"/>
<path d="M344.545 303.408C344.545 303.408 348.611 314.613 357.689 317.791C366.769 320.969 378.824 304.476 378.824 304.476L378.193 302.331C378.193 302.331 370.295 312.595 361.508 310.844C352.72 309.095 344.031 297.189 344.031 297.189L344.545 303.408Z" fill="#1D2A30"/>
<path d="M336.155 282.577L336.116 282.591C335.907 282.661 334.869 282.971 333.739 282.968C333.024 282.969 332.285 282.845 331.681 282.517C331.077 282.184 330.575 281.675 330.245 280.728C329.723 279.201 328.784 276.865 327.973 274.312C327.163 271.763 326.492 268.999 326.496 266.729C326.495 265.792 326.608 264.945 326.849 264.235C327.093 263.521 327.455 262.949 327.972 262.505C328.641 261.937 329.192 261.76 329.695 261.756C330.276 261.755 330.875 262.021 331.471 262.501C332.363 263.216 333.171 264.38 333.727 265.359C334.007 265.848 334.227 266.291 334.376 266.608C334.449 266.767 334.507 266.895 334.544 266.981L334.597 267.108C334.751 267.484 335.179 267.667 335.555 267.515C335.932 267.363 336.113 266.933 335.961 266.557C335.949 266.529 335.351 265.041 334.308 263.512C333.785 262.748 333.152 261.969 332.395 261.357C331.64 260.748 330.732 260.288 329.695 260.285C328.803 260.283 327.876 260.645 327.015 261.388C326.271 262.025 325.765 262.851 325.457 263.761C325.148 264.675 325.025 265.677 325.024 266.729C325.028 269.276 325.743 272.137 326.571 274.756C327.401 277.369 328.356 279.744 328.853 281.203C329.279 282.468 330.077 283.328 330.981 283.811C331.887 284.297 332.865 284.437 333.739 284.439C335.321 284.436 336.6 283.977 336.644 283.964C337.027 283.829 337.228 283.409 337.093 283.027C336.957 282.643 336.537 282.443 336.155 282.577Z" fill="#1D2A30"/>
<path d="M386.865 286.292C386.899 286.299 387.471 286.412 388.303 286.412C389.168 286.411 390.324 286.292 391.444 285.752C392.563 285.217 393.633 284.212 394.176 282.603C394.673 281.144 395.628 278.769 396.457 276.156C397.285 273.537 398 270.676 398.004 268.129C398.003 267.077 397.88 266.075 397.571 265.161C397.263 264.249 396.757 263.425 396.013 262.788C395.152 262.045 394.225 261.683 393.333 261.685C392.296 261.687 391.388 262.148 390.635 262.756C389.5 263.677 388.636 264.965 388.024 266.029C387.417 267.093 387.076 267.936 387.068 267.956C386.916 268.333 387.097 268.761 387.475 268.913C387.851 269.067 388.28 268.884 388.432 268.508L388.455 268.453C388.576 268.163 389.193 266.764 390.116 265.484C390.575 264.844 391.111 264.237 391.669 263.815C392.231 263.388 392.788 263.156 393.333 263.156C393.836 263.16 394.387 263.337 395.056 263.905C395.573 264.349 395.935 264.921 396.179 265.635C396.42 266.345 396.533 267.192 396.532 268.129C396.536 270.399 395.865 273.163 395.055 275.712C394.245 278.265 393.305 280.601 392.784 282.128C392.353 283.368 391.631 284.019 390.803 284.428C389.976 284.831 389.028 284.943 388.303 284.941C387.955 284.941 387.66 284.917 387.455 284.893L387.223 284.861L387.167 284.852L387.155 284.849C386.757 284.769 386.369 285.028 386.289 285.425C386.209 285.824 386.467 286.212 386.865 286.292Z" fill="#1D2A30"/>
<path d="M335.28 277.653C336.779 277.585 339.237 276.124 340.028 274.848C340.817 273.571 341.152 272.069 341.408 270.592C341.899 267.76 342.151 264.887 342.161 262.012C342.165 260.889 342.135 259.744 342.461 258.669C342.804 257.551 343.512 256.583 344.272 255.693C346.161 253.48 348.435 251.609 350.232 249.32C352.027 247.031 353.345 244.131 352.861 241.263C352.861 241.263 365.135 252.481 382.827 249.012C392.351 247.144 401.493 238.785 400.38 228.28C399.984 224.541 397.236 221.853 393.669 220.965C388.96 219.795 384.731 222.305 380.464 223.913C372.687 226.847 365.077 221.811 357.221 220.965C350.501 220.243 342.253 221.076 338.755 227.757C338.755 227.757 326.684 229.175 321.399 239.088C316.111 249.001 326.161 262.725 326.161 262.725C326.161 262.725 330.205 257.828 335.404 267.741L335.28 277.653Z" fill="#1D2A30"/>
<path d="M381.987 245.719C381.987 245.719 378.865 261.983 387.011 269.859C387.011 269.859 388.792 264.969 390.6 263.776C390.6 263.776 395.132 255.183 389.173 245.719C383.215 236.253 381.987 245.719 381.987 245.719Z" fill="#1D2A30"/>
<path d="M333.908 253.159C333.891 253.159 333.875 253.157 333.857 253.156C333.452 253.129 333.147 252.779 333.173 252.373C333.501 247.6 336.095 243.179 339.728 239.939C343.364 236.701 348.064 234.62 352.733 234.616C353.179 234.616 353.624 234.636 354.068 234.675C362.077 235.392 369.785 238.071 377.401 238.071C377.415 238.071 377.428 238.071 377.441 238.071C380.741 238.069 384.021 237.577 387.336 236.229C391.469 234.548 395.077 231.211 396.196 227.017C396.284 226.689 396.581 226.473 396.905 226.473C396.968 226.473 397.033 226.481 397.097 226.499C397.489 226.604 397.721 227.007 397.616 227.4C396.325 232.171 392.353 235.769 387.891 237.591C384.377 239.023 380.891 239.541 377.448 239.541C377.445 239.541 377.444 239.541 377.441 239.541C369.473 239.531 361.72 236.819 353.939 236.14C353.539 236.104 353.137 236.087 352.733 236.087C352.729 236.087 352.724 236.087 352.72 236.087C348.5 236.087 344.101 238.008 340.707 241.037C337.303 244.068 334.929 248.181 334.641 252.473C334.615 252.861 334.292 253.159 333.908 253.159Z" fill="#45555C"/>
<path d="M326.885 250.653C326.88 250.653 326.875 250.653 326.868 250.653C326.463 250.644 326.14 250.308 326.149 249.901C326.337 242.112 331.435 234.729 338.652 231.795C338.743 231.759 338.836 231.74 338.928 231.74C339.219 231.74 339.493 231.915 339.609 232.2C339.763 232.576 339.58 233.005 339.204 233.157C332.557 235.84 327.773 242.769 327.62 249.935C327.611 250.336 327.284 250.653 326.885 250.653Z" fill="#45555C"/>
<path d="M340.879 312.655C340.921 312.692 348.407 320.969 358.771 324.895C358.921 324.951 359.081 324.957 359.236 324.912C359.265 324.903 362.688 323.911 366.992 321.72C371.296 319.525 376.493 316.141 380.048 311.277C380.288 310.949 380.216 310.489 379.888 310.251C379.56 310.011 379.1 310.083 378.86 310.411C375.525 314.984 370.512 318.281 366.325 320.409C364.233 321.473 362.351 322.249 360.996 322.757C360.317 323.011 359.772 323.197 359.397 323.32C359.209 323.381 359.065 323.427 358.968 323.457L358.827 323.5L359.031 324.207L359.291 323.519C354.317 321.641 349.971 318.672 346.88 316.172C345.333 314.923 344.101 313.791 343.257 312.975C342.835 312.567 342.511 312.236 342.292 312.011L342.047 311.752L341.968 311.667C341.695 311.365 341.229 311.343 340.928 311.616C340.628 311.889 340.605 312.353 340.879 312.655Z" fill="#1D2A30"/>
<path d="M362.224 277.653H361.488C361.488 280.76 360.231 283.567 358.196 285.603C356.159 287.639 353.353 288.895 350.247 288.895C347.14 288.895 344.333 287.639 342.297 285.603C340.261 283.567 339.005 280.76 339.004 277.653C339.005 274.547 340.261 271.741 342.297 269.704C344.333 267.668 347.14 266.412 350.247 266.412C353.353 266.412 356.159 267.668 358.196 269.704C360.231 271.74 361.488 274.547 361.488 277.653H362.224H362.959C362.959 270.632 357.268 264.941 350.247 264.941C343.225 264.941 337.535 270.632 337.533 277.653C337.535 284.675 343.225 290.365 350.247 290.365C357.268 290.365 362.959 284.675 362.959 277.653H362.224Z" fill="#1D2A30"/>
<path d="M388.983 277.653H388.247C388.247 280.76 386.989 283.565 384.955 285.603C382.917 287.639 380.112 288.895 377.005 288.895C373.899 288.895 371.093 287.639 369.056 285.603C367.021 283.567 365.764 280.76 365.764 277.653C365.764 274.547 367.021 271.74 369.056 269.704C371.093 267.668 373.899 266.412 377.005 266.412C380.112 266.412 382.917 267.668 384.955 269.704C386.989 271.741 388.247 274.547 388.247 277.653H388.983H389.719C389.717 270.632 384.025 264.941 377.005 264.941C369.984 264.941 364.293 270.632 364.293 277.653C364.293 284.675 369.984 290.365 377.005 290.365C384.025 290.365 389.717 284.675 389.719 277.653H388.983Z" fill="#1D2A30"/>
<path d="M343.885 306.972C343.833 306.983 342.855 307.185 341.589 307.884C340.325 308.583 338.769 309.791 337.629 311.797C337.068 312.797 336.764 314.12 336.568 315.608C336.376 317.093 336.311 318.74 336.311 320.333C336.311 324.175 336.696 327.704 336.697 327.719C336.716 327.888 336.789 328.043 336.911 328.163C336.92 328.172 339.668 330.891 343.591 334.188C347.517 337.487 352.607 341.363 357.367 343.699C357.573 343.8 357.816 343.799 358.023 343.693C358.228 343.589 358.373 343.395 358.413 343.167L360.593 330.907L363.996 343.233C364.06 343.464 364.233 343.651 364.459 343.731C364.683 343.811 364.935 343.776 365.131 343.639C365.144 343.628 368.768 341.065 372.907 337.408C377.045 333.741 381.701 329.02 383.799 324.515L383.86 324.3C383.861 324.284 384.445 319.803 384.445 315.776C384.439 313.753 384.317 311.873 383.815 310.575C383.157 308.889 382.04 307.941 381.041 307.471C380.041 306.995 379.173 306.957 378.885 306.956L378.787 306.959C378.38 306.98 378.068 307.325 378.089 307.731C378.111 308.136 378.456 308.448 378.861 308.428L378.856 308.327L378.859 308.428H378.861L378.856 308.327L378.859 308.428H378.885C379.032 308.427 379.691 308.453 380.407 308.797C381.124 309.147 381.913 309.775 382.447 311.113C382.815 312.017 382.981 313.84 382.975 315.776C382.975 317.721 382.832 319.812 382.688 321.411C382.616 322.209 382.545 322.887 382.491 323.363C382.437 323.84 382.401 324.111 382.401 324.112L383.131 324.207L382.464 323.897C380.567 328.019 376.009 332.713 371.933 336.305C369.896 338.107 367.979 339.643 366.573 340.727C365.871 341.268 365.296 341.697 364.897 341.991C364.499 342.283 364.281 342.437 364.281 342.437L364.705 343.039L365.415 342.843L361.148 327.384C361.056 327.052 360.748 326.829 360.404 326.845C360.06 326.861 359.775 327.112 359.715 327.451L356.965 342.909L357.689 343.039L358.013 342.377C353.453 340.144 348.412 336.321 344.537 333.063C342.599 331.433 340.948 329.944 339.784 328.864C339.201 328.324 338.74 327.885 338.427 327.584C338.112 327.281 337.945 327.117 337.945 327.117L337.428 327.64L338.159 327.56C338.159 327.56 338.136 327.348 338.1 326.964C337.995 325.812 337.781 323.143 337.781 320.333C337.781 318.783 337.847 317.188 338.027 315.796C338.203 314.407 338.511 313.215 338.908 312.524C339.888 310.8 341.213 309.775 342.301 309.171C342.844 308.871 343.325 308.679 343.665 308.563C343.836 308.505 343.969 308.467 344.059 308.443L344.156 308.419L344.177 308.413C344.575 308.333 344.832 307.945 344.752 307.547C344.671 307.149 344.283 306.892 343.885 306.972Z" fill="#1D2A30"/>
<path d="M327.612 410.965C327.611 410.956 326.541 403.781 324.757 395.133C322.968 386.477 320.487 376.38 317.58 370.399C317.403 370.033 316.963 369.881 316.597 370.059C316.232 370.237 316.08 370.677 316.257 371.043C319.045 376.755 321.547 386.832 323.317 395.431C324.205 399.732 324.915 403.673 325.404 406.536C325.648 407.968 325.836 409.131 325.964 409.935C326.092 410.739 326.157 411.18 326.157 411.181C326.217 411.584 326.592 411.86 326.993 411.801C327.395 411.741 327.672 411.367 327.612 410.965Z" fill="#1D2A30"/>
<path d="M304.013 345.705C304.013 345.707 304.345 346.171 304.903 346.989C306.573 349.443 310.248 355.047 312.8 360.409C312.975 360.776 313.413 360.932 313.781 360.757C314.148 360.583 314.303 360.144 314.128 359.776C310.641 352.459 305.221 344.869 305.211 344.851C304.975 344.52 304.515 344.443 304.184 344.679C303.853 344.915 303.777 345.375 304.013 345.705Z" fill="#1D2A30"/>
<path d="M417.732 366.863C419.229 361.177 420.828 356.191 422.385 353.008C422.564 352.644 422.413 352.203 422.048 352.024C421.683 351.847 421.243 351.997 421.064 352.363C419.424 355.721 417.823 360.753 416.309 366.488C416.205 366.88 416.44 367.283 416.833 367.385C417.225 367.489 417.628 367.255 417.732 366.863Z" fill="#1D2A30"/>
<path d="M408.904 411.188C408.905 411.184 409.097 409.963 409.443 407.871C410.481 401.593 412.905 387.513 415.655 375.395C415.744 374.999 415.496 374.605 415.1 374.515C414.704 374.425 414.309 374.673 414.22 375.069C410.539 391.299 407.453 410.951 407.452 410.959C407.388 411.36 407.663 411.737 408.064 411.8C408.465 411.863 408.841 411.588 408.904 411.188Z" fill="#1D2A30"/>
<path d="M414 383.941C416.839 380.151 420.969 377.325 425.532 376.056C425.923 375.948 426.152 375.543 426.043 375.151C425.933 374.76 425.528 374.531 425.137 374.64C420.255 376 415.863 379.004 412.823 383.06C412.579 383.384 412.645 383.845 412.971 384.089C413.295 384.332 413.756 384.267 414 383.941Z" fill="#1D2A30"/>
<path d="M383.437 322.283C383.443 322.284 408.292 332.211 424.357 337.859L424.601 337.164L424.097 337.7L424.145 337.745C425.22 338.796 444.324 358.045 464.792 420.229L465.491 419.999L464.859 419.623C464.859 419.624 464.788 419.741 464.64 419.977C462.424 423.537 443.285 452.662 409.023 462.36C408.632 462.472 408.405 462.877 408.516 463.269C408.627 463.66 409.033 463.887 409.424 463.776C446.624 453.207 466.075 420.436 466.123 420.375C466.232 420.192 466.256 419.971 466.189 419.769C445.004 355.404 425.213 336.731 425.105 336.629L424.845 336.471C416.84 333.657 406.621 329.767 398.407 326.581C394.3 324.989 390.693 323.573 388.115 322.555C385.535 321.536 383.988 320.919 383.984 320.916C383.607 320.765 383.179 320.949 383.028 321.327C382.877 321.704 383.06 322.132 383.437 322.283Z" fill="#1D2A30"/>
<path d="M416.1 433.555L433.916 418.679L433.445 418.113L433.889 418.699L433.939 418.664C434.475 418.264 439.373 414.861 445.4 414.872C447.601 414.873 449.955 415.316 452.344 416.509C452.707 416.692 453.149 416.544 453.331 416.181C453.512 415.817 453.365 415.376 453.001 415.195C450.395 413.889 447.799 413.401 445.4 413.401C438.384 413.416 433.063 417.491 433 417.528L432.973 417.549L415.157 432.425C414.845 432.685 414.804 433.149 415.064 433.461C415.324 433.773 415.788 433.815 416.1 433.555Z" fill="#1D2A30"/>
<path d="M414.329 382.115C414.329 382.116 414.556 382.449 414.964 383.068C416.393 385.236 420.027 390.868 423.708 397.552C427.389 404.232 431.116 411.98 432.732 418.296C432.833 418.689 433.235 418.927 433.628 418.827C434.021 418.725 434.259 418.324 434.157 417.931C432.235 410.449 427.585 401.324 423.416 394.029C419.245 386.739 415.552 381.299 415.545 381.289C415.317 380.953 414.86 380.865 414.524 381.093C414.188 381.321 414.1 381.779 414.329 382.115Z" fill="#1D2A30"/>
<path d="M314.76 422.553L309.547 417.581C309.44 417.48 309.311 417.415 309.165 417.389C309.131 417.383 308.319 417.244 306.94 417.244C303.951 417.243 298.272 417.904 292.125 422.025C291.787 422.251 291.697 422.708 291.923 423.045C292.149 423.383 292.607 423.473 292.944 423.247C298.797 419.323 304.16 418.716 306.94 418.715C307.58 418.715 308.081 418.747 308.419 418.779C308.588 418.795 308.716 418.811 308.799 418.821L308.889 418.835L308.912 418.839L309.039 418.113L308.531 418.645L313.745 423.617C314.039 423.897 314.504 423.887 314.784 423.592C315.065 423.299 315.053 422.833 314.76 422.553Z" fill="#1D2A30"/>
<path d="M309.743 418.328C309.743 418.327 309.843 418 310.031 417.399C310.692 415.296 312.435 409.879 314.707 403.796C316.976 397.716 319.783 390.963 322.537 386.229C322.741 385.879 322.623 385.428 322.272 385.224C321.921 385.02 321.471 385.139 321.267 385.489C318.028 391.061 314.809 399.143 312.383 405.855C309.96 412.564 308.337 417.892 308.335 417.9C308.217 418.288 308.436 418.699 308.824 418.817C309.213 418.936 309.624 418.716 309.743 418.328Z" fill="#1D2A30"/>
<path d="M336.788 323.517C336.784 323.519 327.843 326.873 318.455 330.72C313.761 332.644 308.956 334.689 305.092 336.505C303.16 337.413 301.463 338.264 300.124 339.019C298.781 339.783 297.815 340.412 297.245 341.033C296.892 341.445 296.651 341.993 296.339 342.797C295.216 345.767 293.676 352.064 291.953 360.053C289.375 372.025 286.421 387.729 284.08 401.203C282.911 407.939 281.893 414.116 281.152 418.991C280.412 423.875 279.948 427.421 279.881 429.011L279.879 429.171C279.884 430.36 280.387 431.58 281.207 432.869C282.651 435.12 285.131 437.616 288.239 440.246C297.556 448.12 312.541 457.112 321.559 461.879C321.917 462.068 322.363 461.931 322.552 461.572C322.741 461.213 322.605 460.768 322.245 460.579C315.436 456.98 305.128 450.908 296.556 444.792C292.269 441.735 288.415 438.664 285.661 435.908C284.285 434.531 283.184 433.232 282.447 432.077C281.703 430.921 281.344 429.915 281.349 429.171L281.351 429.071C281.391 428.06 281.636 425.945 282.039 423.077C283.452 413.02 286.805 393.512 290.185 376.111C291.876 367.409 293.573 359.231 295.037 353.027C295.769 349.925 296.443 347.316 297.024 345.392C297.315 344.431 297.581 343.64 297.816 343.055C298.043 342.475 298.269 342.083 298.34 342.016C298.647 341.661 299.564 341.017 300.847 340.3C305.365 337.749 314.511 333.879 322.487 330.671C326.479 329.065 330.184 327.62 332.891 326.577C335.597 325.535 337.3 324.896 337.305 324.895C337.685 324.752 337.877 324.328 337.735 323.948C337.592 323.568 337.168 323.375 336.788 323.517Z" fill="#1D2A30"/>
<path d="M466.464 312.16H425.731C420.92 312.16 417.02 308.261 417.02 303.451V279.553C417.02 274.744 420.92 270.845 425.731 270.845H466.464C471.275 270.845 475.175 274.744 475.175 279.553V303.451C475.175 308.261 471.275 312.16 466.464 312.16Z" fill="white"/>
<path d="M466.464 312.16V311.425H425.731C423.525 311.425 421.537 310.533 420.092 309.089C418.648 307.644 417.756 305.655 417.756 303.451V279.553C417.756 277.349 418.648 275.361 420.092 273.916C421.537 272.472 423.525 271.581 425.731 271.581H466.464C468.669 271.581 470.657 272.472 472.103 273.916C473.547 275.361 474.439 277.349 474.439 279.553V303.451C474.439 305.655 473.547 307.644 472.103 309.089C470.657 310.533 468.669 311.425 466.464 311.425V312.16V312.896C471.681 312.896 475.909 308.667 475.909 303.451V279.553C475.909 274.337 471.681 270.111 466.464 270.109H425.731C420.513 270.111 416.285 274.337 416.285 279.553V303.451C416.285 308.667 420.513 312.896 425.731 312.896H466.464V312.16Z" fill="#1D2A30"/>
<path d="M435.392 282.648L424.211 289.668C424.015 289.791 423.888 290 423.868 290.231C423.849 290.46 423.94 290.688 424.113 290.841L434.489 300.045C434.793 300.315 435.259 300.287 435.528 299.983C435.797 299.679 435.769 299.215 435.465 298.945L425.824 290.392L436.175 283.895C436.519 283.679 436.623 283.224 436.407 282.88C436.191 282.536 435.736 282.432 435.392 282.648Z" fill="#1D2A30"/>
<path d="M456.637 300.723L466.687 292.159C466.863 292.009 466.957 291.784 466.943 291.553C466.929 291.323 466.805 291.111 466.612 290.984L455.012 283.379C454.672 283.156 454.217 283.251 453.995 283.591C453.771 283.931 453.867 284.387 454.205 284.609L464.985 291.676L455.683 299.604C455.373 299.867 455.337 300.331 455.6 300.64C455.864 300.949 456.328 300.987 456.637 300.723Z" fill="#1D2A30"/>
<path d="M441.92 305.656L450.176 279.772C450.299 279.385 450.085 278.971 449.699 278.848C449.312 278.724 448.897 278.939 448.775 279.325L440.519 305.209C440.396 305.596 440.609 306.009 440.996 306.133C441.383 306.257 441.797 306.043 441.92 305.656Z" fill="#1D2A30"/>
<path d="M363.779 349.551C363.779 350.851 362.727 351.903 361.427 351.903C360.128 351.903 359.076 350.851 359.076 349.551C359.076 348.253 360.128 347.201 361.427 347.201C362.727 347.201 363.779 348.253 363.779 349.551Z" fill="#1D2A30"/>
<path d="M405.144 475.179H323.787C322.735 475.179 321.88 474.324 321.88 473.27C321.88 472.217 322.735 471.364 323.787 471.364H405.144C406.197 471.364 407.051 472.217 407.051 473.27C407.051 474.324 406.197 475.179 405.144 475.179Z" fill="#1D2A30"/>
<path d="M407.992 468.856L418.895 417.656C419.616 414.267 417.031 411.073 413.565 411.073H318.511C315.077 411.073 312.5 414.211 313.165 417.577L322.94 467.072C323.435 469.58 325.605 471.405 328.16 471.464L402.537 473.167C405.156 473.227 407.447 471.417 407.992 468.856Z" fill="white"/>
<path d="M407.992 468.856L408.711 469.009L419.613 417.809C419.707 417.373 419.751 416.939 419.751 416.511C419.751 413.18 417.051 410.341 413.565 410.337H318.511C315.031 410.341 312.325 413.175 312.324 416.511C312.324 416.908 312.363 417.313 312.444 417.72L322.219 467.215C322.78 470.06 325.244 472.132 328.143 472.199L402.52 473.903L402.664 473.904C405.576 473.904 408.101 471.869 408.711 469.009L407.992 468.856L407.272 468.703C406.808 470.882 404.883 472.433 402.664 472.433L402.555 472.432L328.176 470.729C325.967 470.679 324.089 469.099 323.661 466.929L313.887 417.435C313.825 417.123 313.795 416.813 313.795 416.511C313.795 415.244 314.309 414.068 315.159 413.208C316.009 412.348 317.18 411.809 318.511 411.809H413.565C414.897 411.809 416.068 412.349 416.919 413.209C417.767 414.071 418.28 415.247 418.28 416.511C418.28 416.836 418.247 417.168 418.175 417.504L407.272 468.703L407.992 468.856Z" fill="#1D2A30"/>
<path d="M373.303 440.579C373.303 444.769 369.904 448.167 365.713 448.167C361.523 448.167 358.125 444.769 358.125 440.579C358.125 436.387 361.523 432.989 365.713 432.989C369.904 432.989 373.303 436.387 373.303 440.579Z" fill="#1D2A30"/>
<path d="M388.217 416.668H399.512C399.917 416.668 400.247 416.339 400.247 415.933C400.247 415.527 399.917 415.197 399.512 415.197H388.217C387.811 415.197 387.481 415.527 387.481 415.933C387.481 416.339 387.811 416.668 388.217 416.668Z" fill="#1D2A30"/>
<path d="M334.285 416.668H377.155C377.561 416.668 377.891 416.339 377.891 415.933C377.891 415.527 377.561 415.197 377.155 415.197H334.285C333.879 415.197 333.549 415.527 333.549 415.933C333.549 416.339 333.879 416.668 334.285 416.668Z" fill="#1D2A30"/>
<path d="M408.179 523.17L399.512 545.916C399.512 545.916 377.415 540.345 349.101 534.544C319.496 528.477 288.575 520.623 272.536 492.484C270.58 489.052 269.279 484.999 270.195 481.157C272.509 471.437 285.153 468.8 293.487 467.827C298.719 467.216 303.999 467.013 309.261 466.94C311.945 466.903 320.796 465.496 322.94 467.072C322.94 467.074 328.495 471.16 333.228 473.169C337.96 475.179 407.051 471.364 407.051 471.364C407.051 471.364 409.105 467.027 409.224 463.068C420.084 457.548 445.233 452.874 455.859 454.937C472.569 458.188 482.316 467.935 480.459 478.146C478.603 488.358 441.728 515.744 408.179 523.17Z" fill="#1D2A30"/>
<path d="M408.367 522.46C408.365 522.46 408.048 522.376 407.445 522.203C403.227 520.992 385.307 515.464 370.4 505.387C362.619 500.132 355.575 494.458 347.905 490.074C340.24 485.691 331.927 482.608 321.703 482.611C319.675 482.611 317.572 482.732 315.385 482.987C314.981 483.033 314.692 483.399 314.739 483.801C314.787 484.205 315.151 484.493 315.555 484.446C317.687 484.199 319.732 484.081 321.703 484.081C331.625 484.084 339.641 487.048 347.176 491.351C354.708 495.652 361.732 501.304 369.576 506.605C386.888 518.296 407.951 523.868 407.989 523.881C408.383 523.985 408.785 523.752 408.889 523.36C408.993 522.967 408.759 522.564 408.367 522.46Z" fill="white"/>
<path d="M366.241 503.967C377.285 500.781 385.323 493.676 394.001 486.965C403.205 479.839 412.921 472.953 423.341 467.682C423.703 467.499 423.848 467.057 423.665 466.695C423.481 466.332 423.039 466.187 422.677 466.37C412.125 471.708 402.339 478.65 393.101 485.801C384.372 492.567 376.485 499.492 365.835 502.553C365.444 502.665 365.219 503.072 365.331 503.463C365.443 503.853 365.851 504.079 366.241 503.967Z" fill="white"/>
<path d="M362.224 280.284H365.405C365.812 280.284 366.141 279.955 366.141 279.548C366.141 279.143 365.812 278.813 365.405 278.813H362.224C361.817 278.813 361.488 279.143 361.488 279.548C361.488 279.955 361.817 280.284 362.224 280.284Z" fill="#1D2A30"/>
</g>
<defs>
<clipPath id="clip0_1013_1409">
<rect width="585.44" height="573.027" fill="white"/>
</clipPath>
</defs>
</svg>
